<svg version="1.1" xmlns="http://www.w3.org/2000/svg" xmlns:xlink="http://www.w3.org/1999/xlink" x="0px" y="0px" viewBox="0 0 48 48" enable-background="new 0 0 48 48" xml:space="preserve">
    <polygon fill="#0d6a86" points="31,36 6,36 6,3 23,3 31,11 "></polygon>
    <polygon fill="white" points="29.5,12 22,12 22,4.5 "></polygon>
    <g>
        <rect x="11" y="16" fill="white" width="16" height="2"></rect>
        <rect x="11" y="20" fill="white" width="12" height="2"></rect>
        <rect x="11" y="24" fill="white" width="16" height="2"></rect>
        <rect x="11" y="28" fill="white" width="12" height="2"></rect>
    </g>
    <polygon fill="#0d6a86" points="42,44 17,44 17,11 34,11 42,19 "></polygon>
    <polygon fill="white" points="40.5,20 33,20 33,12.5 "></polygon>
    <g>
        <rect x="22" y="24" fill="white" width="15" height="2"></rect>
        <rect x="22" y="28" fill="white" width="11" height="2"></rect>
        <rect x="22" y="32" fill="white" width="15" height="2"></rect>
        <rect x="22" y="36" fill="white" width="11" height="2"></rect>
    </g>
</svg>