<svg version="1.1" id="Layer_1" xmlns="http://www.w3.org/2000/svg" xmlns:xlink="http://www.w3.org/1999/xlink" x="0px" y="0px" viewBox="0 0 48 48" enable-background="new 0 0 48 48" xml:space="preserve">
	<g>
		<path fill="#1e3e45" d="M40,12H22l-4-4H8c-2.2,0-4,1.8-4,4v8h40v-4C44,13.8,42.2,12,40,12z"></path>
	</g>
	<g>
		<path fill="#0d6a86" d="M40,12H8c-2.2,0-4,1.8-4,4v20c0,2.2,1.8,4,4,4h32c2.2,0,4-1.8,4-4V16C44,13.8,42.2,12,40,12z"></path>
	</g>
	<circle fill="#43A047" cx="38" cy="38" r="10"></circle>
	<g>
		<rect x="36" y="32" fill="#FFFFFF" width="4" height="12"></rect>
		<rect x="32" y="36" fill="#FFFFFF" width="12" height="4"></rect>
	</g>
</svg>