<svg version="1.1" xmlns="http://www.w3.org/2000/svg" xmlns:xlink="http://www.w3.org/1999/xlink" x="0px" y="0px" viewBox="0 0 48 48" enable-background="new 0 0 48 48" xml:space="preserve">
    <path fill="#0d6a86" d="M37.934,13c0,0.553-0.446,1-0.998,1H4.998C4.446,14,4,13.553,4,13V6c0-0.553,0.446-1,0.998-1h31.938c0.552,0,0.998,0.447,0.998,1V13z"></path>
    <rect x="4" y="10" fill="white" width="33.934" height="29"></rect>
    <path fill="#FFFFFF" d="M23.548,37c0,0,4.469-6,9.98-6s9.98,6,9.98,6s-4.469,6-9.98,6S23.548,37,23.548,37z"></path>
    <path fill="#90A4AE" d="M33.528,31c5.512,0,9.98,6,9.98,6s-4.469,6-9.98,6s-9.98-6-9.98-6S28.017,31,33.528,31 M33.528,29c-6.438,0-11.373,6.526-11.58,6.804L21.058,37l0.891,1.196C22.155,38.474,27.09,45,33.528,45s11.374-6.526,11.58-6.804L46,37l-0.892-1.196C44.902,35.526,39.967,29,33.528,29L33.528,29z"></path>
    <g>
        <path fill="#0d6a86" d="M23.823,31h-8.845v2h6.734C22.269,32.403,22.98,31.707,23.823,31z"></path>
        <path fill="#0d6a86" d="M30.947,27.285V27H14.979v2H26.66C27.943,28.254,29.379,27.627,30.947,27.285z"></path>
        <rect x="14.979" y="23" fill="#0d6a86" width="15.969" height="2"></rect>
        <rect x="14.979" y="19" fill="#0d6a86" width="15.969" height="2"></rect>
        <rect x="14.979" y="15" fill="#0d6a86" width="15.969" height="2"></rect>
        <rect x="10.986" y="15" fill="#0d6a86" width="1.996" height="2"></rect>
        <rect x="10.986" y="19" fill="#0d6a86" width="1.996" height="2"></rect>
        <rect x="10.986" y="31" fill="#0d6a86" width="1.996" height="2"></rect>
        <rect x="10.986" y="23" fill="#0d6a86" width="1.996" height="2"></rect>
        <rect x="10.986" y="27" fill="#0d6a86" width="1.996" height="2"></rect>
    </g>
    <ellipse fill="#00ACC1" cx="33.528" cy="37" rx="4.99" ry="5"></ellipse>
    <circle fill="#0d6a86" cx="33.528" cy="37" r="1.996"></circle>
</svg>