<svg version="1.1" id="Layer_1" xmlns="http://www.w3.org/2000/svg" xmlns:xlink="http://www.w3.org/1999/xlink" x="0px" y="0px" viewBox="0 0 48 48" enable-background="new 0 0 48 48" xml:space="preserve">
    <g>
        <path fill="#1e3e45" d="M40,12H22l-4-4H8c-2.2,0-4,1.8-4,4v8h40v-4C44,13.8,42.2,12,40,12z"></path>
    </g>
    <g>
        <path fill="#0d6a86" d="M40,12H8c-2.2,0-4,1.8-4,4v20c0,2.2,1.8,4,4,4h32c2.2,0,4-1.8,4-4V16C44,13.8,42.2,12,40,12z"></path>
    </g>
    <g>
        <rect x="22" y="18" fill="#FFFFFF" width="4" height="2"></rect>
        <rect x="22" y="12" fill="#FFFFFF" width="4" height="2"></rect>
        <rect x="22" y="15" fill="#FFFFFF" width="4" height="2"></rect>
        <rect x="22" y="21" fill="#FFFFFF" width="4" height="2"></rect>
        <path fill="#FFFFFF" d="M26,24h-4c0,3-2,6-2,8c0,2.2,1.8,4,4,4s4-1.8,4-4C28,30,26,27,26,24z M24,34c-1.1,0-2-0.9-2-2s0.9-2,2-2s2,0.9,2,2S25.1,34,24,34z"></path>
    </g>
</svg>