<svg version="1.1" xmlns="http://www.w3.org/2000/svg" xmlns:xlink="http://www.w3.org/1999/xlink" x="0px" y="0px" viewBox="0 0 48 48" enable-background="new 0 0 48 48" xml:space="preserve">
    <g>
        <ellipse transform="matrix(0.7071 0.7071 -0.7071 0.7071 24.1464 -9.5876)" fill="#4527A0" cx="23.646" cy="24.354" rx="11" ry="15.5"></ellipse>
        <g>
            <path fill="#4527A0" d="M4.201,32.485C3.6,28.933,4.465,25.198,5.938,21.869c0.729-1.685,1.641-3.282,2.658-4.812c0.51-0.765,1.047-1.512,1.621-2.242c0.293-0.367,0.57-0.719,0.923-1.099c0.295-0.327,0.601-0.658,0.935-1.002c2.586-2.634,5.637-5.012,9.393-6.38c3.717-1.418,8.271-1.286,12.021,0.641c0.957,0.494,1.799,0.998,2.74,1.818c0.846,0.795,1.521,1.589,2.138,2.571c1.244,1.92,1.764,4.437,1.509,6.693c-0.24,2.274-1.066,4.282-2.057,6.049c-1.001,1.772-2.192,3.336-3.459,4.783c-0.317,0.361-0.641,0.715-0.968,1.063l-0.536,0.551c-0.182,0.181-0.364,0.349-0.548,0.516c-0.734,0.663-1.494,1.288-2.319,1.884c-0.828,0.593-1.709,1.158-2.755,1.647c-1.053,0.461-2.266,0.961-4.029,0.857c-0.867-0.06-1.882-0.377-2.691-0.957c-0.202-0.142-0.394-0.296-0.565-0.457l-0.13-0.122c-0.112-0.11-0.169-0.178-0.217-0.231c-0.096-0.112-0.171-0.209-0.242-0.305c-0.277-0.376-0.479-0.736-0.651-1.113c-0.688-1.504-0.708-3.155-0.389-4.494c0.676-2.694,2.213-4.436,3.579-5.866c1.074-1.056,1.855-2.228,2.006-2.991c0.081-0.369,0.031-0.575-0.017-0.684c-0.007-0.021-0.031-0.051,0.008-0.001c0.025,0.026-0.002,0.01,0.18,0.188l-0.105-0.098c0.03,0.032,0.064,0.061,0.101,0.085c0.01,0.01,0.021,0.018,0.033,0.023c0.101,0.067,0.231,0.085,0.198,0.073c-0.057-0.031-0.604,0.063-1.166,0.333c-0.576,0.261-1.211,0.644-1.834,1.081c-0.624,0.438-1.248,0.936-1.839,1.455c-0.566,0.499-1.131,1.066-1.701,1.664c-2.222,2.339-4.103,5.074-4.447,7.634c-0.175,1.269,0.051,2.42,0.66,3.551c0.151,0.283,0.331,0.562,0.534,0.835c0.102,0.137,0.207,0.272,0.321,0.406l0.29,0.334c0.422,0.416,1.049,0.874,1.664,1.23c1.26,0.729,2.68,1.195,4.152,1.35c1.475,0.151,3.006,0,4.525-0.398c3.053-0.806,5.954-2.645,8.567-4.836c2.599-2.128,4.87-4.864,6.746-7.75c0.93-1.46,1.722-3.012,2.278-4.656c0.576-1.639,0.865-3.393,0.746-5.177c0.461,1.731,0.43,3.599,0.117,5.397c-0.329,1.802-0.944,3.545-1.703,5.213c-0.754,1.674-1.694,3.253-2.724,4.77c-0.517,0.758-1.059,1.498-1.632,2.223c-0.292,0.366-0.572,0.715-0.91,1.09c-0.31,0.34-0.619,0.682-0.941,1.013c-2.573,2.635-5.616,5.025-9.359,6.418c-3.706,1.438-8.262,1.351-12.03-0.548c-0.953-0.479-1.825-1.002-2.733-1.768l-0.213-0.195l-0.144-0.14l-0.284-0.285c-0.188-0.193-0.371-0.396-0.55-0.604c-0.356-0.417-0.694-0.864-0.999-1.345c-1.259-1.904-1.821-4.414-1.588-6.681c0.214-2.284,1.028-4.307,2.011-6.082c0.993-1.781,2.18-3.352,3.443-4.804c0.632-0.713,1.284-1.446,2.044-2.134c0.73-0.67,1.484-1.3,2.304-1.9c0.821-0.599,1.695-1.17,2.729-1.67c1.038-0.475,2.228-0.98,3.961-0.938c0.854,0.027,1.87,0.293,2.719,0.847l0.308,0.212c0.123,0.095,0.243,0.193,0.36,0.295l0.14,0.128c0.265,0.253,0.307,0.323,0.402,0.436c0.316,0.397,0.525,0.75,0.712,1.129c0.737,1.499,0.798,3.165,0.5,4.526c-0.298,1.377-0.878,2.494-1.506,3.453c-0.63,0.954-1.352,1.785-2.057,2.494c-0.581,0.571-1.017,1.072-1.391,1.607c-0.364,0.521-0.604,1.029-0.697,1.408c-0.096,0.385-0.054,0.606-0.006,0.732c0.011,0.028,0.028,0.057,0.015,0.039l-0.036-0.043l-0.111-0.118l-0.049-0.036c-0.085-0.063-0.225-0.09-0.208-0.08c0.025,0.03,0.563-0.049,1.118-0.313c0.571-0.256,1.205-0.636,1.826-1.071c0.623-0.437,1.247-0.933,1.838-1.454l0.433-0.388l0.411-0.39l0.864-0.875c2.23-2.336,4.127-5.066,4.504-7.635c0.19-1.275-0.026-2.43-0.613-3.566c-0.283-0.553-0.734-1.154-1.151-1.609c-0.37-0.382-1.021-0.871-1.626-1.223c-1.254-0.74-2.673-1.22-4.145-1.383c-1.474-0.164-3.005-0.024-4.526,0.361c-3.057,0.784-5.967,2.622-8.581,4.797c-2.613,2.109-4.83,4.875-6.662,7.793C5.59,25.564,4.264,28.898,4.201,32.485z"></path>
        </g>
    </g>
    <g>
        <g>
            <path fill="#9575CD" d="M23.892,26.26c1.819-1.359,3.674-3.058,5.097-4.819c1.435-1.743,2.464-3.822,2.157-5.192c-0.066-0.348-0.202-0.678-0.427-1.011c-0.108-0.165-0.249-0.332-0.396-0.49c-0.256-0.265-0.345-0.343-0.56-0.537c-0.757-0.65-1.58-1.076-2.488-1.229c-1.818-0.34-4.027,0.501-6.01,1.768c-1.998,1.255-3.891,2.96-5.675,4.631c-1.723,1.632-3.18,3.637-4.127,5.859c-0.95,2.217-1.345,4.703-0.888,7.133C11.014,34.806,12.297,37.093,14,39c-1.914-1.688-3.528-3.849-4.319-6.405c-0.809-2.546-0.719-5.375,0.044-7.967c0.76-2.606,2.094-5.018,3.845-7.136c1.784-1.986,3.643-3.807,5.878-5.435c1.119-0.798,2.334-1.53,3.717-2.065c1.373-0.529,2.957-0.856,4.597-0.672c1.64,0.166,3.212,0.881,4.444,1.831c0.28,0.212,0.676,0.552,0.873,0.738c0.31,0.289,0.602,0.597,0.871,0.948c0.541,0.689,0.978,1.533,1.211,2.429c0.481,1.821,0.142,3.605-0.396,5.047c-0.55,1.465-1.308,2.719-2.129,3.874c-1.679,2.311-3.526,4.204-5.699,6.037c-1.056,0.892-2.635,0.758-3.525-0.299c-0.892-1.056-0.757-2.635,0.299-3.525c0.036-0.03,0.072-0.06,0.109-0.088L23.892,26.26z"></path>
        </g>
        <g>
            <path fill="#9575CD" d="M24.108,21.74c-1.819,1.359-3.674,3.058-5.097,4.819c-1.435,1.743-2.464,3.822-2.157,5.192c0.066,0.349,0.202,0.679,0.428,1.011c0.108,0.165,0.248,0.333,0.396,0.49c0.257,0.266,0.345,0.343,0.561,0.537c0.756,0.65,1.58,1.076,2.487,1.23c1.818,0.339,4.027-0.502,6.01-1.769c1.999-1.255,3.891-2.961,5.675-4.631c1.723-1.632,3.18-3.638,4.127-5.859c0.95-2.217,1.345-4.703,0.888-7.133C36.986,13.194,35.703,10.907,34,9c1.914,1.688,3.528,3.849,4.319,6.405c0.809,2.546,0.719,5.374-0.044,7.967c-0.76,2.606-2.094,5.018-3.845,7.136c-1.784,1.986-3.643,3.807-5.878,5.435c-1.119,0.798-2.334,1.53-3.717,2.065c-1.373,0.529-2.957,0.856-4.597,0.672c-1.639-0.166-3.211-0.881-4.444-1.831c-0.279-0.212-0.676-0.552-0.873-0.737c-0.31-0.289-0.602-0.598-0.87-0.949c-0.542-0.689-0.978-1.533-1.212-2.429c-0.48-1.821-0.142-3.604,0.396-5.047c0.549-1.465,1.308-2.719,2.128-3.873c1.679-2.311,3.526-4.205,5.699-6.038c1.056-0.892,2.635-0.758,3.525,0.299c0.892,1.056,0.757,2.635-0.299,3.525c-0.036,0.03-0.072,0.06-0.109,0.088L24.108,21.74z"></path>
        </g>
    </g>
    <g>
        <circle fill="#EDE7F6" cx="23" cy="17" r="1"></circle>
        <circle fill="#EDE7F6" cx="23.549" cy="22.451" r="1.5"></circle>
        <circle fill="#EDE7F6" cx="19.049" cy="26.951" r="1"></circle>
        <circle fill="#EDE7F6" cx="15.5" cy="18.5" r="0.5"></circle>
        <circle fill="#EDE7F6" cx="30.549" cy="14.451" r="1.5"></circle>
        <circle fill="#EDE7F6" cx="17.549" cy="32.451" r="0.5"></circle>
        <circle fill="#EDE7F6" cx="26.549" cy="29.451" r="1.5"></circle>
    </g>
</svg>