<?xml version="1.0" encoding="utf-8"?>
<svg version="1.1" id="Calque_1" xmlns="http://www.w3.org/2000/svg" xmlns:xlink="http://www.w3.org/1999/xlink" x="0px" y="0px" viewBox="-55 147 500 500" style="enable-background:new -55 147 500 500;" xml:space="preserve">
    <style type="text/css">
        .st0{fill:#C1E7F1;}
        .st1{fill:#C2E8F7;}
        .st2{fill:#A2DDF5;}
        .st3{fill:#94DAF8;}
        .st4{fill:#8BD2F5;}
        .st5{fill:#88B4E0;}
        .st6{fill:#84D2F5;}
        .st7{fill:#8BC8ED;}
        .st8{fill:#89BDE7;}
        .st9{fill:#85A7D8;}
        .st10{fill:#80BBE6;}
        .st11{fill:#75A4D7;}
        .st12{fill:#7F98CD;}
        .st13{fill:#9FDBE9;}
        .st14{fill:#9FDAE5;}
        .st15{fill:#8AD4E8;}
        .st16{fill:#5CCBF3;}
        .st17{fill:#52CAF5;}
        .st18{fill:#6FCFF2;}
        .st19{fill:#6BC5EF;}
        .st20{fill:#50AEE2;}
        .st21{fill:#4C9ED7;}
        .st22{fill:#61A0D6;}
        .st23{fill:#508FCC;}
        .st24{fill:#4D7ABD;}
        .st25{fill:#5F7FC0;}
        .st26{fill:#507CBF;}
        .st27{fill:#3A75BB;}
        .st28{fill:#305DAB;}
        .st29{fill:#8BCBEF;}
        .st30{fill:#8FD8F8;}
        .st31{fill:#9BDAEF;}
        .st32{fill:#86D5F0;}
        .st33{fill:#6CCFF3;}
        .st34{fill:#53C9F4;}
        .st35{fill:#4DC5F2;}
        .st36{fill:#4AA6DD;}
        .st37{fill:#4A98D3;}
        .st38{fill:#49AFE3;}
        .st39{fill:#448BCA;}
        .st40{fill:#3F76BB;}
        .st41{fill:#3E6CB5;}
        .st42{fill:#3A63AF;}
        .st43{fill:#3660AD;}
        .st44{fill:#346CB5;}
        .st45{fill:#84ADDC;}
        .st46{fill:#7FBEE8;}
        .st47{fill:#6BAADC;}
        .st48{fill:#64BDEA;}
        .st49{fill:#53AFE3;}
        .st50{fill:#4B90CD;}
        .st51{fill:#458DCB;}
        .st52{fill:#4076BB;}
        .st53{fill:#4481C2;}
        .st54{fill:#3D6DB5;}
        .st55{fill:#3D6AB3;}
        .st56{fill:#3A57A6;}
        .st57{fill:#3A58A8;}
        .st58{fill:#364DA1;}
        .st59{fill:#3350A3;}
        .st60{fill:#2A419A;}
        .st61{fill:#7E86C2;}
        .st62{fill:#727CBC;}
        .st63{fill:#617FBF;}
        .st64{fill:#556FB5;}
        .st65{fill:#4A6BB3;}
        .st66{fill:#3B65B0;}
        .st67{fill:#375EAB;}
        .st68{fill:#3B62AE;}
        .st69{fill:#3953A4;}
        .st70{fill:#3954A5;}
        .st71{fill:#364A9F;}
        .st72{fill:#313F99;}
        .st73{fill:#2F3694;}
        .st74{fill:#2F3B97;}
        .st75{fill:#2B3290;}
        .st76{fill:#707DBD;}
        .st77{fill:#5C77BA;}
        .st78{fill:#3466B1;}
        .st79{fill:#225FAC;}
        .st80{fill:#2C59A8;}
        .st81{fill:#2352A4;}
        .st82{fill:#2A4BA0;}
        .st83{fill:#2F499E;}
        .st84{fill:#283C97;}
        .st85{fill:#2B348E;}
        .st86{fill:#2B3086;}
        .st87{fill:none;stroke:#72C9F1;stroke-width:0,2;stroke-linejoin:round;stroke-miterlimit:10;}
        .st88{fill:#636566;stroke:rgba(0, 0, 0, .2);stroke-miterlimit:10;}
    </style>
    <g id="XMLID_404_">
        <g id="cloud_1_">
            <g id="cloud_3_">
                <g id="color_2_">
                    <path id="XMLID_509_" class="st0" d="M141.041275,352.8499756c-0.1000061,0.2999878-0.1999969,0.5-0.3000031,0.7999878l0.8999939,0.2000122L141.041275,352.8499756z"/>
                    <path id="XMLID_508_" class="st1" d="M143.1412811,347.4499512c-0.8000031,1.7000122-1.5,3.5-2.1000061,5.3000183l0.6999969,1L143.1412811,347.4499512z"/>
                    <path id="XMLID_507_" class="st2" d="M172.3412781,351.8499756l-12.8999939-25.1000366c-6.8999939,5.3000183-12.5,12.4000244-16.3000031,20.7000122l-1.5,6.2999878L172.3412781,351.8499756z"/>
                    <path id="XMLID_506_" class="st3" d="M180.741272,325.9499512l-10.6999969-5.2999878c-3.6999969,1.6000061-7.3000031,3.7000122-10.5,6.2000122l12.8999939,25.0999756L180.741272,325.9499512z"/>
                    <path id="XMLID_505_" class="st4" d="M203.6412659,319.6499634h-0.1000061l-17.6999969-2.7999878c-5.6000061,0.2999878-10.8999939,1.5999756-15.8000031,3.7999878l10.6999969,5.2999878L203.6412659,319.6499634z"/>
                    <path id="XMLID_504_" class="st5" d="M188.6412811,316.6499634c-0.8999939,0-1.8999939,0-2.8000031,0.1000061l17.7000122,2.8000183C198.741272,317.6499634,193.741272,316.6499634,188.6412811,316.6499634z"/>
                    <polygon id="XMLID_503_" class="st6" points="180.741272,325.9499512 172.3412781,351.8499756 187.041275,336.9499512 				"/>
                    <path id="XMLID_502_" class="st7" d="M187.041275,336.9499512l16.5999908-17.2999878l0,0l-22.8999939,6.2999878L187.041275,336.9499512z"/>
                    <path id="XMLID_501_" class="st8" d="M211.8412781,328.3499756l-8.1000061-8.7000122h-0.1000061l-16.6000061,17.2999878L211.8412781,328.3499756z"/>
                    <path id="XMLID_500_" class="st9" d="M216.241272,327.3499756c-3.8999939-3.3000183-8.1000061-5.9000244-12.5-7.7000122l8.1000061,8.7000122L216.241272,327.3499756z"/>
                    <polygon id="XMLID_499_" class="st10" points="211.8412781,328.3499756 187.041275,336.9499512 213.241272,351.5499573 				"/>
                    <path id="XMLID_498_" class="st11" d="M213.241272,351.5499573l18.2000122-3.8999939c-2.2000122-4.7999878-4.8999939-9.1000061-8-12.8999939l-11.6000061-6.3999939L213.241272,351.5499573z"/>
                    <path id="XMLID_497_" class="st12" d="M223.4412842,334.7499695c-2.2000122-2.8000183-4.6000061-5.3000183-7.2000122-7.3999939l-4.3999939,1L223.4412842,334.7499695z"/>
                    <path id="XMLID_496_" class="st13" d="M138.741272,361.4499512c-0.3999939,2-0.6000061,4-0.8000031,6.1000366c-1.1000061-0.1000366-2.1000061-0.2000122-3.1000061-0.2000122c-3.6999969,0-7.3000031,0.6000061-10.6999969,1.6000061L146.8412628,369.75L138.741272,361.4499512z"/>
                    <path id="XMLID_495_" class="st14" d="M141.741272,353.8499756l-0.8999939-0.2000122c-0.8000031,2.5-1.5,5.1000061-2,7.7999878l8.1000061,8.4000244L141.741272,353.8499756z"/>
                    <polygon id="XMLID_494_" class="st15" points="141.741272,353.8499756 146.9412842,369.8499756 172.3412781,351.8499756 				"/>
                    <polygon id="XMLID_493_" class="st16" points="172.3412781,351.8499756 146.9412842,369.8499756 181.3412781,379.2499695 				"/>
                    <polygon id="XMLID_492_" class="st17" points="186.241272,364.3499756 172.3412781,351.8499756 181.3412781,379.2499695 				"/>
                    <polygon id="XMLID_491_" class="st18" points="187.041275,336.9499512 172.3412781,351.8499756 186.241272,364.3499756 				"/>
                    <polygon id="XMLID_490_" class="st19" points="213.241272,351.5499573 187.041275,336.9499512 186.241272,364.3499756 				"/>
                    <polygon id="XMLID_489_" class="st20" points="215.0412903,386.0499573 213.241272,351.5499573 186.241272,364.3499756 				"/>
                    <polygon id="XMLID_488_" class="st21" points="223.9412842,365.3499756 213.241272,351.5499573 215.0412903,386.0499573 				"/>
                    <path id="XMLID_487_" class="st22" d="M223.9412842,365.3499756l10.2000122-11c-0.7999878-2.3000183-1.7000122-4.5-2.7000122-6.7000122l-18.2000122,3.8999939L223.9412842,365.3499756z"/>
                    <path id="XMLID_486_" class="st23" d="M233.8412781,377.0499573l6.7999878-24.8999939c-1.6000061,0.5-3.1000061,1-4.6000061,1.6000061c-0.7000122,0.1999817-1.2999878,0.5-1.8999939,0.6999817l0,0l-10.2000122,11L233.8412781,377.0499573z"/>
                    <path id="XMLID_485_" class="st24" d="M270.0412903,368.8499756l-20.5-17.5c-1.2000122-0.1000366-2.2999878-0.1000366-3.5-0.1000366c-1.6000061,0-3.5,0.4000244-5.3999939,1l-6.7999878,24.9000244L270.0412903,368.8499756z"/>
                    <path id="XMLID_484_" class="st25" d="M269.1412659,358.0499573c-5.8999939-3.8000183-12.5-6.1000061-19.6000061-6.6999817l20.5,17.5L269.1412659,358.0499573z"/>
                    <path id="XMLID_483_" class="st26" d="M276.741272,364.1499634c-2.2999878-2.2999878-4.8999939-4.2999878-7.6000061-6.1000061l0.8999939,10.8000183L276.741272,364.1499634z"/>
                    <path id="XMLID_482_" class="st27" d="M288.9412842,383.3499756c-1.5-4.2000122-3.6000061-8.2000122-6-11.8000183l5.8999939,27.3000183L288.9412842,383.3499756z"/>
                    <path id="XMLID_481_" class="st28" d="M291.3412781,411.6499634c0.5-3.1000061,0.7999878-6.2999878,0.7999878-9.6000061c0-6.6000061-1.1000061-12.8999939-3.2000122-18.6999817l-0.1000061,15.5L291.3412781,411.6499634z"/>
                    <path id="XMLID_480_" class="st29" d="M106.8412781,380.6499634c-6.6000061,7.7000122-10.6999969,18.1000061-10.6999969,29.5c0,0.3999939,0,0.7000122,0,1.1000061l14.6999969-15.6000061L106.8412781,380.6499634z"/>
                    <path id="XMLID_479_" class="st30" d="M120.041275,386.1499634l-10.3000031-8.6000061c-1,1-2,2-2.8999939,3.1000061l4,15L120.041275,386.1499634z"/>
                    <path id="XMLID_478_" class="st31" d="M118.4412842,371.3499756c-3.1999969,1.5999756-6.1000061,3.6999817-8.8000031,6.1999817l10.3000031,8.6000061L118.4412842,371.3499756z"/>
                    <path id="XMLID_477_" class="st32" d="M146.9412842,369.8499756l-22.6999969-0.8000183c-2,0.6000061-3.8999939,1.3999939-5.6999969,2.3000183l1.5,14.7999878L146.9412842,369.8499756z"/>
                    <polygon id="XMLID_476_" class="st33" points="146.9412842,369.8499756 120.041275,386.1499634 145.541275,388.7499695 				"/>
                    <polygon id="XMLID_475_" class="st34" points="165.541275,389.7499695 146.9412842,369.8499756 145.541275,388.7499695 				"/>
                    <polygon id="XMLID_474_" class="st35" points="181.3412781,379.2499695 146.9412842,369.8499756 165.541275,389.7499695 				"/>
                    <polygon id="XMLID_473_" class="st36" points="165.541275,389.7499695 186.541275,401.8499756 181.3412781,379.2499695 				"/>
                    <polygon id="XMLID_472_" class="st37" points="181.3412781,379.2499695 186.541275,401.8499756 215.0412903,386.0499573 				"/>
                    <polygon id="XMLID_471_" class="st38" points="186.241272,364.3499756 181.3412781,379.2499695 215.0412903,386.0499573 				"/>
                    <polygon id="XMLID_470_" class="st39" points="233.8412781,377.0499573 223.9412842,365.3499756 215.0412903,386.0499573 				"/>
                    <polygon id="XMLID_469_" class="st40" points="245.8412781,389.7499695 233.8412781,377.0499573 215.0412903,386.0499573 				"/>
                    <polygon id="XMLID_468_" class="st41" points="270.0412903,368.8499756 233.8412781,377.0499573 245.8412781,389.7499695 				"/>
                    <polygon id="XMLID_467_" class="st42" points="261.241272,391.9499512 270.0412903,368.8499756 245.8412781,389.7499695 				"/>
                    <polygon id="XMLID_466_" class="st43" points="288.8412781,398.8499756 270.0412903,368.8499756 261.241272,391.9499512 				"/>
                    <path id="XMLID_465_" class="st44" d="M288.8412781,398.8499756l-5.8999939-27.3000183c-1.7999878-2.6999817-3.8999939-5.1000061-6.1000061-7.3999939l-6.7000122,4.7000122L288.8412781,398.8499756z"/>
                    <path id="XMLID_464_" class="st45" d="M110.741272,395.6499634L96.041275,411.2499695c0,1.5,0.1000061,3,0.3000031,4.5l29.1999969,4.2999878L110.741272,395.6499634z"/>
                    <polygon id="XMLID_463_" class="st46" points="110.741272,395.6499634 125.6412811,420.1499634 120.041275,386.1499634 				"/>
                    <polygon id="XMLID_462_" class="st47" points="125.6412811,420.1499634 145.1412811,413.1499634 120.041275,386.1499634 				"/>
                    <polygon id="XMLID_461_" class="st48" points="120.041275,386.1499634 145.1412811,413.1499634 145.541275,388.7499695 				"/>
                    <polygon id="XMLID_460_" class="st49" points="145.541275,388.7499695 145.1412811,413.1499634 165.541275,389.7499695 				"/>
                    <polygon id="XMLID_459_" class="st50" points="145.1412811,413.1499634 166.4412842,426.6499634 165.541275,389.7499695 				"/>
                    <polygon id="XMLID_458_" class="st51" points="165.541275,389.7499695 166.4412842,426.6499634 186.541275,401.8499756 				"/>
                    <polygon id="XMLID_457_" class="st52" points="186.541275,401.8499756 166.4412842,426.6499634 199.4412842,410.3499756 				"/>
                    <polygon id="XMLID_456_" class="st53" points="186.541275,401.8499756 199.4412842,410.3499756 215.0412903,386.0499573 				"/>
                    <polygon id="XMLID_455_" class="st54" points="215.0412903,386.0499573 199.4412842,410.3499756 225.9412842,416.5499573 				"/>
                    <polygon id="XMLID_454_" class="st55" points="245.8412781,389.7499695 215.0412903,386.0499573 225.9412842,416.5499573 				"/>
                    <polygon id="XMLID_453_" class="st56" points="225.9412842,416.5499573 248.241272,412.3499756 245.8412781,389.7499695 				"/>
                    <polygon id="XMLID_452_" class="st57" points="245.8412781,389.7499695 248.241272,412.3499756 261.241272,391.9499512 				"/>
                    <polygon id="XMLID_451_" class="st58" points="248.241272,412.3499756 273.0412903,414.3499756 261.241272,391.9499512 				"/>
                    <polygon id="XMLID_450_" class="st59" points="273.0412903,414.3499756 288.8412781,398.8499756 261.241272,391.9499512 				"/>
                    <path id="XMLID_449_" class="st60" d="M273.0412903,414.3499756l15,8.7000122c1.5-3.6000061,2.6000061-7.5,3.2999878-11.5l-2.5-12.7999878L273.0412903,414.3499756z"/>
                    <path id="XMLID_448_" class="st61" d="M96.4412842,415.7499695c1.3000031,11,6.3999939,20.7000122,13.8999939,27.5l15.3000031-23.1000061L96.4412842,415.7499695z"/>
                    <path id="XMLID_438_" class="st62" d="M125.6412811,420.1499634l-15.3000031,23.1000061c2.1999969,1.8999939,4.5,3.6000061,7,5.1000061l12.5-3.5L125.6412811,420.1499634z"/>
                    <polygon id="XMLID_437_" class="st63" points="129.8412781,444.7499695 145.1412811,413.1499634 125.6412811,420.1499634 				"/>
                    <polygon id="XMLID_436_" class="st64" points="129.8412781,444.7499695 139.541275,452.9499512 141.241272,452.9499512 145.1412811,413.1499634 				"/>
                    <polygon id="XMLID_435_" class="st65" points="145.1412811,413.1499634 141.241272,452.9499512 142.3412781,452.9499512 166.4412842,426.6499634 				"/>
                    <polygon id="XMLID_434_" class="st66" points="166.4412842,426.6499634 142.3412781,452.9499512 153.1412811,452.9499512 173.741272,450.6499634 				"/>
                    <polygon id="XMLID_433_" class="st67" points="166.4412842,426.6499634 173.741272,450.6499634 187.6412811,442.8499756 				"/>
                    <polygon id="XMLID_432_" class="st68" points="199.4412842,410.3499756 166.4412842,426.6499634 187.6412811,442.8499756 				"/>
                    <polygon id="XMLID_431_" class="st69" points="187.6412811,442.8499756 226.4412842,439.2499695 199.4412842,410.3499756 				"/>
                    <polygon id="XMLID_430_" class="st70" points="199.4412842,410.3499756 226.4412842,439.2499695 225.9412842,416.5499573 				"/>
                    <polygon id="XMLID_420_" class="st71" points="226.4412842,439.2499695 248.241272,412.3499756 225.9412842,416.5499573 				"/>
                    <polygon id="XMLID_419_" class="st72" points="235.9412842,450.4499512 248.241272,412.3499756 226.4412842,439.2499695 				"/>
                    <path id="XMLID_418_" class="st73" d="M235.9412842,450.4499512l29-2c0.7000122-0.2999878,1.2999878-0.7000122,2-1l-18.7000122-35L235.9412842,450.4499512z"/>
                    <path id="XMLID_417_" class="st74" d="M248.241272,412.3499756l18.7000122,35c0.2000122-0.1000061,0.5-0.2999878,0.7000122-0.3999939l5.3999939-32.6000061L248.241272,412.3499756z"/>
                    <path id="XMLID_416_" class="st75" d="M267.6412659,446.9499512c9-5.2000122,16.2000122-13.6000061,20.3999939-23.7999878l-15-8.7000122L267.6412659,446.9499512z"/>
                    <path id="XMLID_415_" class="st76" d="M117.241272,448.2499695c2.8000031,1.6000061,5.8000031,2.7999878,8.8999939,3.6000061l3.6000061-7.1000061L117.241272,448.2499695z"/>
                    <path id="XMLID_414_" class="st77" d="M126.1412811,451.8499756c2.8000031,0.7000122,5.6999969,1.1000061,8.6999969,1.1000061h4.6999969l-9.6999969-8.2000122L126.1412811,451.8499756z"/>
                    <polygon id="XMLID_413_" class="st78" points="173.741272,450.6499634 153.1412811,452.9499512 172.1412811,452.9499512 				"/>
                    <polygon id="XMLID_412_" class="st79" points="172.1412811,452.9499512 174.4412842,452.9499512 173.741272,450.6499634 				"/>
                    <polygon id="XMLID_411_" class="st80" points="173.741272,450.6499634 174.4412842,452.9499512 185.6412811,452.9499512 187.6412811,442.8499756 				"/>
                    <polygon id="XMLID_410_" class="st81" points="185.6412811,452.9499512 190.241272,452.9499512 187.6412811,442.8499756 				"/>
                    <polygon id="XMLID_409_" class="st82" points="190.241272,452.9499512 202.8412781,452.9499512 187.6412811,442.8499756 				"/>
                    <polygon id="XMLID_408_" class="st83" points="187.6412811,442.8499756 202.8412781,452.9499512 222.6412659,452.9499512 226.4412842,439.2499695 				"/>
                    <polygon id="XMLID_407_" class="st84" points="226.4412842,439.2499695 222.6412659,452.9499512 232.9412842,452.9499512 235.9412842,450.4499512 				"/>
                    <polygon id="XMLID_406_" class="st85" points="232.9412842,452.9499512 237.3412781,452.9499512 235.9412842,450.4499512 				"/>
                    <path id="XMLID_405_" class="st86" d="M237.3412781,452.9499512h1.5h7.2000122h1.6000061v-0.1000061c6.2000122-0.2000122,12-1.7999878,17.2999878-4.3999939l-29,2L237.3412781,452.9499512z"/>
                </g>
            </g>
        </g>
        <g id="XMLID_391_">
            <path id="XMLID_392_" class="st87" d="M194.1412811,153.6499634c-59.5,0-104.5,105.2000122-104.5,244.7000122s44.9000092,244.7000122,104.5,244.7000122s104.4999847-105.2000122,104.4999847-244.7000122C298.5412903,258.8499756,253.6412659,153.6499634,194.1412811,153.6499634z"/>
            <path id="XMLID_393_" class="st87" d="M-41.0587196,276.0499573c-29.7999992,46.5,48.9000015,134.1000061,183,203.8000183c134,69.7999878,257.6000061,87.3999634,287.3999939,40.8999634s-48.8999939-134.0999756-183-203.8999634C112.241272,247.1499634-11.3587198,229.5499573-41.0587196,276.0499573z"/>
            <path id="XMLID_394_" class="st87" d="M-41.0587196,520.749939c29.8000031,46.5,153.2999878,28.9000244,287.3999939-40.8999634c134.1000061-69.7000122,212.7000122-157.3999939,183-203.7999878c-29.7999878-46.5000153-153.2999878-28.9000244-287.3999939,40.7999878C7.8412809,386.6499634-70.8587189,474.2499695-41.0587196,520.749939z"/>
            <ellipse id="XMLID_396_" class="st44" cx="-54.6587181" cy="148.6499634" rx="3" ry="3">
                <animateMotion  fill="remove" path="M13.6,372.1C43.4,418.6,166.9,401,301,331.2c134.1-69.7,212.7-157.4,183-203.8c-29.8-46.5-153.3-28.9-287.4,40.8C62.5,238-16.2,325.6,13.6,372.1z" repeatCount="indefinite" restart="always" calcMode="paced" dur="3s" additive="replace" accumulate="none"></animateMotion>
            </ellipse>
            <ellipse id="XMLID_398_" class="st44" cx="-54.6587181" cy="148.6499634" rx="3" ry="3">
                <animateMotion  fill="remove" path="M483.7,373.6c29.8-46.5-48.9-134.1-183-203.8C166.7,100,43.1,82.4,13.3,128.9c-29.8,46.5,48.9,134.1,183,203.9C330.4,402.5,453.9,420.1,483.7,373.6z" repeatCount="indefinite" restart="always" calcMode="paced" dur="3s" additive="replace" accumulate="none"></animateMotion>
            </ellipse>
            <ellipse id="XMLID_400_" class="st44" cx="-54.6587181" cy="148.6499634" rx="3" ry="3">
                <animateMotion  fill="remove" path="M248.8,5c-59.5,0-104.5,105.2-104.5,244.7c0,139.5,44.9,244.7,104.5,244.7s104.5-105.2,104.5-244.7C353.2,110.2,308.3,5,248.8,5z" repeatCount="indefinite" restart="always" calcMode="paced" dur="3s" additive="replace" accumulate="none"></animateMotion>
            </ellipse>
        </g>
    </g>
    <path id="path7800"  class="st88" d="M186.7081146,327.0300903l-1.0368652,2.557312l-0.4443665,2.4532166v0.0892029l-2.547699,0.2527466l-0.0147858-0.0892029l-0.9183502-2.319397l-1.510849-2.3045349l-1.8367157,0.3568115l-0.5184326,2.7208557l0.0444031,2.4978333l0.0296326,0.0743408l-2.4736481,0.7582397l-0.0147858-0.0892029l-1.3479156-2.0963745l-1.9403992-1.9625854l-1.7182159,0.7136536l0.0147858,2.7654724l0.5184174,2.4383545l0.0444183,0.0743408l-2.2662811,1.2191772l-0.0444031-0.0743408l-1.7330322-1.7990417l-2.2810822-1.5462646l-1.5404816,1.040741l0.5480652,2.7059937l0.9924164,2.2896729l0.0592499,0.0743408l-1.999649,1.6354675l-0.0592499-0.0594788l-2.0440979-1.4273071l-2.5328827-1.0704956l-1.3182983,1.3232422l1.0664825,2.5424194l1.4219818,2.0517883l0.0592499,0.0594788l-1.6293488,1.9923096l-0.0740662-0.0446167l-2.2810822-0.9961548l-2.6958313-0.5649719l-1.03685,1.5611267l1.5404663,2.2896729l1.7922821,1.739563l0.0888824,0.0297546l-1.2146149,2.2896729l-0.0888672-0.0446167l-2.4292145-0.5352478l-2.7550659-0.0148621l-0.7109985,1.739563l1.9552155,1.9328308l2.1033478,1.3529968l0.0740509,0.0297241l-0.7406006,2.4680786l-0.0888824-0.0148315l-2.4884491-0.0445862l-2.6958313,0.5203857l-0.3703003,1.8287659l2.2958984,1.5314026l2.3255157,0.9069519l0.0740662,0.0148315l-0.2518158,2.5721741h-0.0740662l-2.4588165,0.4460449l-2.5477142,1.040741v1.8733826l2.5477142,1.0407715l2.4588165,0.4311523h0.0740662l0.2518158,2.5721741l-0.0740662,0.0148315l-2.3255157,0.9069519l-2.2958984,1.5314026l0.3703003,1.8287659l2.6958313,0.5203857l2.4884491-0.0445862l0.0888824-0.0148315l0.7406006,2.4680786l-0.0740509,0.0297546l-2.1033478,1.3529663l-1.9552155,1.9477234l0.7109985,1.7246704l2.7550659-0.0148315l2.4292145-0.5352478l0.0888672-0.0445862l1.2146149,2.2896729l-0.0888824,0.0445862l-1.7922821,1.7246704l-1.5404663,2.2896729l1.03685,1.5611572l2.6958313-0.5501099l2.2810822-0.9961548l0.0740662-0.0594788l1.6293488,1.9923096l-0.0592499,0.0594788l-1.4219818,2.0517883l-1.0664825,2.5572815l1.3182983,1.3232422l2.5328827-1.0853577l2.0440979-1.4124451l0.0592499-0.0743408l1.999649,1.6354675l-0.0592499,0.0743408l-0.9924164,2.2896729l-0.5480652,2.7059631l1.5404816,1.0407715l2.2810822-1.5462646l1.7330322-1.7990417l0.0444031-0.0743408l2.2662811,1.2191772l-0.0444183,0.0743408l-0.5184174,2.4532166l-0.0147858,2.7505798l1.7182159,0.7136841l1.9403992-1.9625854l1.3479156-2.0963745l0.0147858-0.0892334l2.4736481,0.7582703l-0.0296326,0.0743408l-0.0444031,2.5126953l0.5184326,2.7059937l1.8367157,0.3717041l1.510849-2.3194275l0.9183502-2.319397l0.0147858-0.0892029l2.547699,0.2527466v0.0892029l0.4443665,2.4680786l1.0368652,2.557312h1.866333l1.0368652-2.557312l0.4443665-2.4680786v-0.0892029l2.547699-0.2527466l0.0147858,0.0892029l0.9183655,2.319397l1.510849,2.3194275l1.8367157-0.3717041l0.5184174-2.7059937l-0.0444031-2.5126953l-0.0296173-0.0743408l2.4736328-0.7582703l0.0147858,0.0892334l1.3479156,2.0963745l1.9403992,1.9625854l1.7182312-0.7136841l-0.0147858-2.7505798l-0.5184326-2.4532166l-0.0444031-0.0743408l2.2662659-1.2191772l0.0444031,0.0743408l1.7330322,1.7990417l2.2810974,1.5462646l1.5404663-1.0407715l-0.5480499-2.7059631l-0.9924164-2.2896729l-0.0592499-0.0743408l1.999649-1.6354675l0.0592499,0.0743408l2.0440826,1.4124451l2.5328979,1.0853577l1.3182831-1.3232422l-1.0664825-2.5572815l-1.4219666-2.0517883l-0.0592499-0.0594788l1.6293488-1.9923096l0.0740509,0.0594788l2.2810822,0.9961548l2.6958313,0.5501099l1.0368652-1.5611572l-1.5404816-2.2896729l-1.7922821-1.7246704l-0.0888672-0.0445862l1.2145996-2.2896729l0.0888824,0.0445862l2.4291992,0.5352478l2.7550812,0.0148315l0.7109833-1.7246704l-1.9552155-1.9477234l-2.1033325-1.3529663l-0.0740662-0.0297546l0.7406158-2.4680786l0.0888672,0.0148315l2.4884644,0.0445862l2.695816-0.5203857l0.3703156-1.8287659l-2.2958984-1.5314026l-2.325531-0.9069519l-0.0740509-0.0148315l0.2518005-2.5721741h0.0740662l2.4588318-0.4311523l2.547699-1.0407715v-1.8733521l-2.547699-1.0407715l-2.4588318-0.4460449h-0.0740662l-0.2518005-2.5721741l0.0740509-0.0148315l2.325531-0.9069519l2.2958984-1.5314026l-0.3703156-1.8287659l-2.695816-0.5203857l-2.4884644,0.0445862l-0.0888672,0.0148315l-0.7406158-2.4680786l0.0740662-0.0297241l2.1033325-1.3529968l1.9552155-1.9328308l-0.7109833-1.739563l-2.7550812,0.0148621l-2.4291992,0.5352478l-0.0888824,0.0446167l-1.2145996-2.2896729l0.0888672-0.0297546l1.7922821-1.7395325l1.5404816-2.2896729l-1.0368652-1.5611572l-2.6958313,0.5650024l-2.2810822,0.9961548l-0.0740509,0.0445862l-1.6293488-1.9923096l0.0592499-0.0594788l1.4219666-2.0517883l1.0664825-2.5424194l-1.3182831-1.3232422l-2.5328979,1.0704956l-2.0440826,1.4273376l-0.0592499,0.0594482l-1.999649-1.6354675l0.0592499-0.0743408l0.9924164-2.2896729l0.5480499-2.7059631l-1.5404663-1.0407715l-2.2810974,1.5462646l-1.7330322,1.7990417l-0.0444031,0.0743408l-2.2662659-1.2191772l0.0444031-0.0743408l0.5184326-2.4383545l0.0147858-2.7654419l-1.7182312-0.7136841l-1.9403992,1.9625854l-1.3479156,2.0963745l-0.0147858,0.0892334l-2.4736328-0.7582703l0.0296173-0.0743408l0.0444031-2.4978333l-0.5184174-2.7208557l-1.8367157-0.3568115l-1.510849,2.3045349l-0.9183655,2.319397l-0.0147858,0.0892029l-2.547699-0.2527466v-0.0892029l-0.4443665-2.4532166l-1.0368652-2.557312H186.7081146z M187.6412811,337.1552124c2.6947479,0,8.0578613,0.6541748,8.0578613,0.6541748l-1.6145325,6.4675903l-1.6145325,6.4824524c0,0-3.2135162-0.3270874-4.8287964-0.3270874c-1.6152649,0-4.8287811,0.3270874-4.8287811,0.3270874l-1.6145325-6.4824524l-1.6145477-6.4675903C179.5834198,337.8093872,184.9465485,337.1552124,187.6412811,337.1552124z M164.0305786,346.819397l4.7843475,4.6388245l4.7695465,4.6388245c0,0-1.8881836,2.6399536-2.6958313,4.0440979c-0.8076324,1.4041443-2.1329651,4.3563232-2.1329651,4.3563232l-6.3840637-1.8287659l-6.3988953-1.8287659c0,0,2.1334991-4.9874268,3.4808807-7.3299255S164.0305786,346.819397,164.0305786,346.819397z M211.2519836,346.819397c0,0,3.2296143,4.348114,4.5769806,6.6906128c1.3473816,2.3424988,3.4808807,7.3299255,3.4808807,7.3299255l-6.39888,1.8287659l-6.384079,1.8287659c0,0-1.3253174-2.952179-2.1329651-4.3563232c-0.8076324-1.4041443-2.6958313-4.0440979-2.6958313-4.0440979l4.7695465-4.6388245L211.2519836,346.819397z M187.6412811,362.3564758c4.1246033,0,7.4653625,3.3533325,7.4653625,7.4934692s-3.3407593,7.4934692-7.4653625,7.4934692s-7.4653625-3.3533325-7.4653625-7.4934692S183.5166779,362.3564758,187.6412811,362.3564758z M168.7556763,375.187561c0,0,1.3253326,2.952179,2.1329651,4.3563232c0.8076477,1.4041138,2.6958313,4.0440979,2.6958313,4.0440979l-4.7695465,4.6387939l-4.7843475,4.6388245c0,0-3.229599-4.3332214-4.5769806-6.6757202c-1.3473816-2.3425293-3.4808807-7.3299255-3.4808807-7.3299255l6.3988953-1.8436279L168.7556763,375.187561z M206.526886,375.187561l6.384079,1.8287659l6.39888,1.8436279c0,0-2.1334991,4.9873962-3.4808807,7.3299255c-1.3473663,2.3424988-4.5769806,6.6757202-4.5769806,6.6757202l-4.7843475-4.6388245l-4.7695465-4.6387939c0,0,1.8881989-2.6399536,2.6958313-4.0440979C205.2015686,378.13974,206.526886,375.187561,206.526886,375.187561z M182.8125,388.9255981c0,0,3.2135162,0.3270874,4.8287811,0.3270874c1.6152802,0,4.8287964-0.3270874,4.8287964-0.3270874l1.6145325,6.4824219l1.6145325,6.4675903c0,0-5.3631134,0.6542053-8.0578613,0.6542053c-2.6947327,0-8.0578613-0.6542053-8.0578613-0.6542053l1.6145477-6.4675903L182.8125,388.9255981z">
        <animateTransform attributeType="xml" attributeName="transform" type="rotate" from="0 187.8984375 370.9534912" to="360 187.8984375 370.9534912" dur="4s" repeatCount="indefinite" />
    </path>

    <g>
        <animateTransform attributeType="xml" attributeName="transform" type="rotate" from="0 137.8750763 412.3721619" to="-360 137.8750763 412.3721619" dur="4s" repeatCount="indefinite"/>
        <path id="path7800_1_"  class="st88" d="M149.4880981,394.0328369L149.4880981,394.0328369L149.4880981,394.0328369L149.4880981,394.0328369L149.4880981,394.0328369l-3.9064026-1.797699l0,0l0.0185699-0.0458679		l-0.0185699,0.0458679l-1.4353485-0.4480591l0,0l0,0l0,0l-2.7612305-0.5742493l0,0l-0.0000916-0.0511475l0.0000916,0.0511475		l-1.5110016-0.1705627l0,0l-1.607132,0.7817688l1.607132-0.7817688l-2.8364868-0.0410767l0.7996521,0.4915771l-0.7996521-0.4915771		l0,0l-1.5048523,0.1181946l-0.0086823-0.0496216l0,0l0.5283508,0.0273743l-4.3149414,0.8171082l0,0l1.0720215-0.2189636l0,0		l-1.5380402,0.3141479l-0.0172729-0.0481262l0.0172729,0.0481262l0,0l-2.6542511,1.0011902l0,0l-0.0244446-0.0383301		l0.0244446,0.0383301l-1.3634567,0.6731873l-0.0172729-0.0481262l0.0172729,0.0481262l0,0l-2.4025192,1.4772034l0,0		l-0.0330276-0.0368652l0.0330276,0.0368652l-1.1981354,0.9085388l-0.0330353-0.0368652l0.0330353,0.0368652l0,0		l-2.0618439,1.9035339l0,0l-0.0416565-0.0353394l0.0416565,0.0353394l-1.0027313,1.1130676l-0.0402069-0.0270691		l0.0402069,0.0270691l-0.1682053,0.2922974l-1.4785385,1.9563904l0,0l-0.0402069-0.0270691l0.0402069,0.0270691		l-0.7528534,1.2739868l-0.0473709-0.0173035l0.0473709,0.0173035l0,0l-1.158577,2.504303l0,0l-0.0545349-0.0075073		l0.0545349,0.0075073l-0.4829559,1.3972778l-0.0559769-0.0157776l0.0559769,0.0157776l0,0l-0.4521942,2.6983643l0,0		l0.1457443-1.7821045l-0.3353958,1.7534485l-0.1902008,1.4483948l-0.0530853,0.0007629l0,0l0.0530853-0.0007629		l-0.089386,2.7351074l0,0l-0.0444717-0.0007324l0.0444717,0.0007324l0.1039276,1.4566345l-0.0430298,0.0075073l0.0430298-0.0075073		l0,0l0.4700928,2.688385l0,0l-0.0430374,0.0075378l0.0430374-0.0075378l0.3965378,1.4054871l-0.0415878,0.0157776		l0.0415878-0.0157776l0,0l1.222229,2.8783875l0,0l0,0l0,0l0.4603882,0.9619751l-0.0401382,0.0240784l0.0401382-0.0240784l0,0		l1.5097046,2.2935181l0,0l-0.0472946,0.0338135l0.0472946-0.0338135l0.9284592,1.1504822l-0.0473022,0.0338135l0.0473022-0.0338135		l0,0l1.9396439,1.9625549l0,0l-0.0372391,0.0405884l0.0372391-0.0405884l1.1405029,0.9429016l-0.0286407,0.039093		l0.0286407-0.039093l0,0l3.1213455,1.7915039l0,0l0,0l-0.8092422-0.2350769l1.3209381,0.7067871l-0.0271912,0.0473633		l0.0271912-0.0473633l0,0l2.5854492,1.0909119l0,0l-0.0185699,0.0458679l0.0185699-0.0458679l1.4353638,0.4480591		l-0.0185699,0.0458679l0.0185699-0.0458679l0,0l2.7612152,0.5742493l0,0l0.0000916,0.0511475l-0.0000916-0.0511475		l1.5110016,0.1705627l-0.0099792,0.0443726l0.0099792-0.0443726l0,0l2.8365021,0.0410767l0.0000916,0.0511475l0,0		l-0.0000916-0.0511475l1.5048523-0.1181946l0.0086823,0.0496216l-0.0086823-0.0496216l0,0l2.805603-0.4906006l0.0086823,0.0496521		l0,0l-0.0086823-0.0496521l1.4556732-0.3994446l0.0172729,0.0481262l-0.0172729-0.0481262l0,0l2.6542511-1.0011902l0,0		l0.0244446,0.0383606l-0.0244446-0.0383606l1.3634644-0.6731873l0.0172729,0.0481262l-0.0172729-0.0481262l0,0l2.4025116-1.4771729		l0,0l0.0330353,0.0368347l-0.0330353-0.0368347l1.1981354-0.9085693l0.0330353,0.0368652l-0.0330353-0.0368652l0,0		l2.0618591-1.9035339l0,0l0,0l0,0l1.0027161-1.1130676l0.0416565,0.0353394l-0.0416565-0.0353394l0,0l1.6467438-2.2486877l0,0		l0.0402222,0.0270691l-0.0402222-0.0270691l0.7528687-1.2739868l0.0488129,0.0255737l-0.0488129-0.0255737l0,0l1.1585693-2.504303		l0,0l0.0559845,0.0157776l-0.0559845-0.0157776l0.4829559-1.3972778l0.0559845,0.0157776l-0.0559845-0.0157776l0,0		l0.6418457-2.6697083l0,0l0.045929,0.0090027l-0.045929-0.0090027l0.1902008-1.4483948l0.0530853-0.0007935l-0.0530853,0.0007935		l0,0l0.089386-2.7351074l0,0l0.0444641,0.0007324l-0.0444641-0.0007324l-0.1039276-1.4566345l0.0430298-0.0075073		l-0.0430298,0.0075073l0,0l-0.4700928-2.688385l0,0l0.0430298-0.0075378l-0.0430298,0.0075378l-0.3965302-1.4054871		l0.0415802-0.0157776l-0.0415802,0.0157776l0,0l-1.0122223-2.54245l0,0l0.0502014-0.0173035l-0.0502014,0.0173035		l-0.6704102-1.2979126l-0.0738525,0.0403748l0.0738525-0.0403748l0,0l-1.5097046-2.2934875l0,0l0,0l0,0l-0.5900116-0.7311096		l0.1008301,0.124939l1.3152466-1.2198486l1.2012634-2.2044983l-1.37883-1.4694519l-2.6362915,0.972168l-1.1948853,1.1546631		l0.3145752,0.2600708l-1.1405029-0.9429016 M134.6188507,394.160614c1.5657043-0.2737732,4.7454071-0.4546814,4.7454071-0.4546814		l-0.3088684,3.7623596l-0.3074341,3.7705994c0,0-1.898941,0.1445007-2.8374329,0.3086243		c-0.9385071,0.164093-2.7738037,0.6725464-2.7738037,0.6725464l-1.5687103-3.4425354l-1.567276-3.4342957		C130.0007324,395.3432312,133.0531616,394.4343872,134.6188507,394.160614z M121.8407898,401.9361572l3.2310791,2.0947876		l3.2224731,2.0963135c0,0-0.8402405,1.6605835-1.1728973,2.5238647c-0.3326492,0.8632507-0.8154831,2.6403809-0.8154831,2.6403809		l-3.8871765-0.368866l-3.8957748-0.3673401c0,0,0.7544022-2.9915771,1.3093567-4.4317322		C120.3873291,404.6833801,121.8407898,401.9361572,121.8407898,401.9361572z M149.2772827,397.1386719		c0,0,2.2994537,2.0909729,3.3101959,3.2573853c1.0107422,1.1663818,2.7355499,3.7244263,2.7355499,3.7244263l-3.5399628,1.667572		l-3.5313568,1.6660461c0,0-1.0572357-1.507843-1.6630859-2.2070007s-1.9597473-1.9760742-1.9597473-1.9760742l2.3199005-3.0654297		L149.2772827,397.1386719z M137.0705566,408.1816406c2.3964691-0.4190369,4.6637421,1.1072083,5.0665131,3.410614		c0.402771,2.3034363-1.2120514,4.5085144-3.6085205,4.9275513s-4.6637421-1.1072388-5.0665131-3.4106445		S134.6740875,408.6006775,137.0705566,408.1816406z M127.3459396,417.2390747c0,0,1.0572433,1.5078125,1.6630936,2.2069702		s1.9597473,1.9761047,1.9597473,1.9761047l-2.3199005,3.0654297l-2.3285065,3.066925c0,0-2.2980118-2.0827332-3.308754-3.249115		s-2.7355423-3.7244568-2.7355423-3.7244568l3.5385132-1.6758118L127.3459396,417.2390747z M149.2917023,413.4016724		l3.8871613,0.3688354l3.8972321,0.3756409c0,0-0.7544098,2.9915466-1.3093567,4.4317322		c-0.5549622,1.4401855-2.0098724,4.1791382-2.0098724,4.1791382l-3.2310791-2.0947876l-3.2224731-2.0963135		c0,0,0.8402557-1.660614,1.1728973-2.5238647C148.8088684,415.1788025,149.2917023,413.4016724,149.2917023,413.4016724z		 M136.8435059,422.4780884c0,0,1.898941-0.1445007,2.8374329-0.3085938		c0.9385071-0.1641235,2.7738037-0.6725769,2.7738037-0.6725769l1.5687103,3.4425659l1.567276,3.4342651		c0,0-3.0524292,0.908844-4.6181183,1.1826172c-1.5657043,0.2737732-4.7454071,0.4546814-4.7454071,0.4546814l0.3088837-3.7623291		L136.8435059,422.4780884z"/>
        <polyline class="st88" points="150.3563995,394.632782 151.2429352,393.0036621 151.7041779,390.5358582 149.9387512,389.5644226 147.7319183,391.3036804 146.9523163,392.7710571 147.3318634,392.9212036 145.5816956,392.2351379 	"/>
        <polyline class="st88" points="144.2769012,391.8227844 144.6546021,390.0691528 144.374176,387.5743103 142.4018555,387.161499 140.7999573,389.4699707 140.4834442,391.1011658 140.8903198,391.1337585 139.4152374,391.0155334 	"/>
        <polyline class="st88" points="137.595993,391.1738586 137.475708,389.3840332 136.5184631,387.0631409 134.5087585,387.2099609 133.6052094,389.8705444 133.7505798,391.5257874 134.1506805,391.4449768 132.7001495,391.7379456 	"/>
        <polyline class="st88" points="131.0188446,392.2113342 130.3805084,390.5349121 128.7865448,388.5953064 126.9075775,389.3232727 126.8213882,392.1317749 127.4443588,393.6721802 127.8033447,393.4779358 126.5018539,394.1821899 	"/>
        <polyline class="st88" points="125.0018692,395.0783386 123.8525162,393.7010498 121.7139053,392.3860779 120.1743164,393.6860962 121.0071869,396.3696594 122.0977249,397.6233215 122.373909,397.3227844 121.3726044,398.412384 	"/>
        <polyline class="st88" points="120.1743164,399.7166138 118.6898575,398.7094727 116.271637,398.0349121 115.1500244,399.7089539 116.6903152,402.0589905 118.0841751,402.963501 118.2668228,402.5984802 117.6046295,403.921875 	"/>
        <polyline class="st88" points="116.9488068,405.4428101 115.2094193,405.0041199 112.7063217,405.1973267 112.2249069,407.1540222 114.4760666,408.8355103 116.0952225,409.2087708 115.905571,409.1801147 115.9723816,410.2733459 	"/>
        <polyline class="st88" points="115.6750565,411.8977661 113.8905334,412.0804443 111.6044693,413.118103 111.821312,415.12146 114.5118179,415.9316101 116.1609879,415.7285461 116.0662689,415.331543 116.4096527,416.7709351 	"/>
        <polyline class="st88" points="116.5521698,418.5769958 114.8757324,419.215332 112.9361267,420.8093262 113.664093,422.6882935 116.4725952,422.7744751 118.0130157,422.1514893 117.8187714,421.792511 118.5230103,423.0939941 	"/>
        <polyline class="st88" points="119.5623474,424.3933105 118.1268005,425.4690247 116.7016907,427.5358582 117.9193649,429.1413879 120.6428299,428.4501038 121.9518661,427.4266663 121.6661987,427.1351318 122.701889,428.1921082 	"/>
        <polyline class="st88" points="123.9410553,429.1413879 123.0130081,430.6765137 122.4659271,433.1267395 124.196373,434.1592102 126.4625626,432.4980164 127.2929001,431.0587463 126.9188156,430.8954468 128.2750397,431.4874573 	"/>
        <polyline class="st88" points="129.8517456,432.3189087 129.3226318,434.032959 129.3845673,436.5427551 131.313385,437.1259155 133.1103821,434.9658508 133.5678558,433.3684387 133.16539,433.3004761 134.6245422,433.546814 	"/>
        <polyline class="st88" points="136.3100586,433.6696167 136.3990936,435.4612732 137.3156891,437.7984924 139.3276367,437.6867981 140.2774811,435.0423889 140.161026,433.3848572 139.7595825,433.4586487 141.2149963,433.1910706 	"/>
        <polyline class="st88" points="142.9756012,432.9927979 143.4954376,434.7096558 144.9502258,436.7557373 146.8753967,436.160614 147.1572723,433.3649597 146.64328,431.7848511 146.2716217,431.9535828 147.6190643,431.3418579 	"/>
        <polyline class="st88" points="149.1668243,430.4889832 150.1917572,431.9611816 152.2076263,433.45755 153.85466,432.2966614 153.2588501,429.5507202 152.281723,428.2067871 151.9803925,428.4820862 153.0728607,427.4839172 	"/>
        <polyline class="st88" points="154.3590698,426.2937927 155.7696533,427.4020081 158.1349182,428.2436218 159.3705902,426.651886 157.9979706,424.2001343 156.6706085,423.200592 156.4629364,423.552002 157.2158356,422.2780151 	"/>
        <polyline class="st88" points="157.952652,420.8093262 159.6366577,421.4274292 162.1462402,421.4969177 162.8295593,419.6012573 160.7664948,417.6936646 159.1952209,417.1532288 159.106308,417.5516052 159.4286652,416.1073303 	"/>
        <polyline class="st88" points="159.7669983,414.3734741 161.5595856,414.440918 163.9678192,413.7315063 164.0318909,411.7174683 161.4803162,410.5407715 159.8189392,410.5123291 159.8574829,410.9186707 159.7177582,409.4454651 	"/>
        <polyline class="st88" points="159.485733,407.7339783 161.1932831,407.1842346 163.2136536,405.6939697 162.585022,403.77948 159.7848663,403.5464172 158.2139587,404.0879211 158.3891449,404.4565735 157.7539978,403.1200256 	"/>
    </g>
    <g>
        <animateTransform attributeType="xml" attributeName="transform" type="rotate" from="0 245.1859741 402.078125" to="-360 245.1859741 402.078125" dur="4s" repeatCount="indefinite"/>
        <path id="path7800_2_"  class="st88" d="M256.7895203,383.8983765L256.7895203,383.8983765L256.7895203,383.8983765L256.7895203,383.8983765L256.7895203,383.8983765l-3.9064026-1.7976685l0,0l0.0185699-0.0458679		l-0.0185699,0.0458679l-1.4353485-0.4480591l0,0l0,0l0,0l-2.7612305-0.5742798l0,0l-0.0000916-0.0511169l0.0000916,0.0511169		l-1.5110016-0.1705627l0,0l-1.607132,0.7817688l1.607132-0.7817688l-2.8365021-0.0410767l0.7996674,0.4915771l-0.7996674-0.4915771		l0,0l-1.5048523,0.1182251l-0.008667-0.0496521l0,0l0.5283508,0.0274048l-4.3149414,0.8171082l0,0l1.0720215-0.2189636l0,0		L238.5729065,381.875l-0.0172729-0.0481262l0.0172729,0.0481262l0,0l-2.6542511,1.0011902l0,0l-0.0244446-0.0383606		l0.0244446,0.0383606l-1.3634644,0.6731873l-0.0172729-0.0481567l0.0172729,0.0481567l0,0l-2.4025116,1.4771729l0,0		l-0.0330353-0.0368347l0.0330353,0.0368347l-1.1981354,0.9085388l-0.0330353-0.0368347l0.0330353,0.0368347l0,0		l-2.0618439,1.9035645l0,0l-0.0416565-0.0353699l0.0416565,0.0353699l-1.0027313,1.1130676l-0.0402069-0.0270691		l0.0402069,0.0270691l-0.1682129,0.2922974l-1.4785309,1.9563599l0,0l-0.0402069-0.0270691l0.0402069,0.0270691		l-0.7528534,1.2739868l-0.0473785-0.0172729l0.0473785,0.0172729l0,0l-1.1585846,2.5043335l0,0l-0.0545349-0.0075378		l0.0545349,0.0075378l-0.4829559,1.3972778l-0.0559692-0.0158081l0.0559692,0.0158081l0,0l-0.4521942,2.6983337l0,0		l0.145752-1.7821045l-0.3354034,1.753479l-0.1902008,1.4483948l-0.0530853,0.0007629l0,0l0.0530853-0.0007629l-0.089386,2.7350769		l0,0l-0.0444641-0.0007324l0.0444641,0.0007324l0.1039276,1.4566345l-0.0430298,0.0075378l0.0430298-0.0075378l0,0		l0.4700928,2.688385l0,0l-0.0430298,0.0075378l0.0430298-0.0075378l0.3965454,1.4054871l-0.0415955,0.0157776l0.0415955-0.0157776		l0,0l1.222229,2.878418l0,0l0,0l0,0l0.4603882,0.9619446l-0.0401306,0.0240784l0.0401306-0.0240784l0,0l1.5097046,2.2935181l0,0		l-0.0473022,0.033844l0.0473022-0.033844l0.9284515,1.1504822l-0.0473022,0.033844l0.0473022-0.033844l0,0l1.9396515,1.9625549l0,0		l-0.0372467,0.0406189l0.0372467-0.0406189l1.1405029,0.9429016l-0.0286407,0.0391235l0.0286407-0.0391235l0,0l3.1213531,1.7915039		l0,0l0,0l-0.8092499-0.2350464l1.3209381,0.7067566l-0.0271912,0.0473938l0.0271912-0.0473938l0,0l2.5854492,1.0909119l0,0		l-0.0185699,0.0458679l0.0185699-0.0458679l1.4353485,0.4480591l-0.0185699,0.0458679l0.0185699-0.0458679l0,0l2.7612305,0.5742798		l0,0l0.0000916,0.0511169l-0.0000916-0.0511169l1.5110016,0.1705627l-0.0099792,0.0443726l0.0099792-0.0443726l0,0		l2.8365021,0.0410767l0.0000763,0.0511169l0,0l-0.0000763-0.0511169l1.5048523-0.1182251l0.008667,0.0496521l-0.008667-0.0496521		l0,0l2.805603-0.4905701l0.0086823,0.0496216l0,0l-0.0086823-0.0496216l1.4556732-0.3994751l0.0172729,0.0481262		l-0.0172729-0.0481262l0,0l2.6542511-1.0011902l0,0l0.0244446,0.0383606l-0.0244446-0.0383606l1.3634644-0.6731567		l0.0172729,0.0481262l-0.0172729-0.0481262l0,0l2.4025116-1.4772034l0,0l0.03302,0.0368347l-0.03302-0.0368347l1.1981506-0.9085388		l0.03302,0.0368347l-0.03302-0.0368347l0,0l2.0618286-1.9035339l0,0l0,0l0,0l1.0027466-1.1130981l0.0416565,0.0353394		l-0.0416565-0.0353394l0,0l1.6467285-2.2486572l0,0l0.0402222,0.0270691l-0.0402222-0.0270691l0.7528687-1.2739868		l0.0487976,0.0255737l-0.0487976-0.0255737l0,0l1.1585693-2.504303l0,0l0.0559692,0.0157776l-0.0559692-0.0157776		l0.4829712-1.3972778l0.0559692,0.0157776l-0.0559692-0.0157776l0,0l0.6418152-2.6697388l0,0l0.045929,0.0090332		l-0.045929-0.0090332l0.1902161-1.4483948l0.0530701-0.0007629l-0.0530701,0.0007629l0,0l0.089386-2.7350769l0,0		l0.0444641,0.0007324l-0.0444641-0.0007324l-0.1039429-1.4566345l0.0430298-0.0075378l-0.0430298,0.0075378l0,0		l-0.4700928-2.6884155l0,0l0.0430298-0.0075073l-0.0430298,0.0075073l-0.3965149-1.4054565l0.0415649-0.0157776		l-0.0415649,0.0157776l0,0l-1.012207-2.5424805l0,0l0.0501709-0.0172729l-0.0501709,0.0172729l-0.6704407-1.2979126		l-0.0738525,0.0404053l0.0738525-0.0404053l0,0l-1.5096741-2.2934875l0,0l0,0l0,0l-0.5900269-0.7311096l0.1008301,0.1249695		l1.3152466-1.2198792l1.2012634-2.2044983l-1.3788452-1.4694214l-2.6362915,0.972168l-1.1948853,1.1546631l0.3146057,0.2600708		l-1.1405029-0.9429016 M241.9202728,384.0261841c1.5656891-0.2737732,4.7454071-0.4546814,4.7454071-0.4546814		l-0.3088837,3.7623291l-0.3074188,3.7706299c0,0-1.898941,0.1445007-2.8374481,0.3085938		c-0.9384918,0.164093-2.7737885,0.6725769-2.7737885,0.6725769l-1.5687103-3.4425659l-1.567276-3.4342957		C237.3021545,385.2087708,240.3545837,384.2999573,241.9202728,384.0261841z M229.1422119,391.8017273l3.2310791,2.0947876		l3.2224731,2.096283c0,0-0.8402405,1.660614-1.1728973,2.5238647c-0.3326569,0.8632813-0.8154907,2.6404114-0.8154907,2.6404114		l-3.8871765-0.368866l-3.8957672-0.3673706c0,0,0.7543945-2.9915466,1.3093567-4.4317322		C227.6887512,394.5489502,229.1422119,391.8017273,229.1422119,391.8017273z M256.5787048,387.0042114		c0,0,2.299469,2.0910034,3.3102112,3.2573853c1.0107422,1.1664124,2.7355347,3.7244568,2.7355347,3.7244568l-3.539978,1.6675415		l-3.5313416,1.6660767c0,0-1.0572357-1.507843-1.6630859-2.2070007s-1.9597626-1.9761047-1.9597626-1.9761047l2.3199158-3.0654297		L256.5787048,387.0042114z M244.3719635,398.0471802c2.3964691-0.4190369,4.6637421,1.1072388,5.0665131,3.4106445		s-1.2120361,4.5084839-3.6085052,4.9275208c-2.3964691,0.4190674-4.6637421-1.1072083-5.0665131-3.410614		S241.9755096,398.4662476,244.3719635,398.0471802z M234.6473541,407.1046143c0,0,1.0572357,1.507843,1.6631012,2.2070007		c0.6058502,0.6991577,1.9597473,1.9761047,1.9597473,1.9761047l-2.3199005,3.0654297l-2.3285065,3.066925		c0,0-2.2980194-2.0827332-3.3087616-3.249115c-1.0107422-1.1664124-2.7355347-3.7244568-2.7355347-3.7244568l3.5385132-1.6758423		L234.6473541,407.1046143z M256.5931091,403.2672119l3.8871765,0.368866l3.8972168,0.3756104		c0,0-0.7543945,2.9915771-1.3093567,4.4317322c-0.5549622,1.4401855-2.0098572,4.1791382-2.0098572,4.1791382l-3.2310791-2.0947876		l-3.2224731-2.096283c0,0,0.8402405-1.660614,1.1728973-2.5238647		C256.1102905,405.044342,256.5931091,403.2672119,256.5931091,403.2672119z M244.144928,412.3436584		c0,0,1.898941-0.1445007,2.8374329-0.3086243c0.9385071-0.164093,2.7738037-0.6725464,2.7738037-0.6725464l1.5687103,3.4425354		l1.5672607,3.4342957c0,0-3.0524139,0.908844-4.6181183,1.1826172c-1.5656891,0.2737732-4.7453918,0.4546814-4.7453918,0.4546814		l0.3088684-3.7623596L244.144928,412.3436584z"/>
        <polyline class="st88" points="257.6578369,384.4983521 258.5443726,382.8692322 259.0055847,380.4014282 257.2401733,379.4299622 255.0333252,381.16922 254.2537384,382.6365967 254.6332855,382.7867432 252.8831177,382.100708 	"/>
        <polyline class="st88" points="251.5783234,381.6883545 251.9560242,379.9347229 251.6755829,377.4398804 249.7032776,377.0270386 248.1013794,379.3355103 247.7848663,380.9667053 248.1917267,380.9993286 246.7166595,380.8811035 	"/>
        <polyline class="st88" points="244.8974152,381.0393982 244.7771149,379.2496033 243.8198853,376.9287109 241.8101807,377.0755005 240.9066315,379.736084 241.052002,381.3913574 241.4521027,381.3105469 240.0015717,381.6034851 	"/>
        <polyline class="st88" points="238.3202667,382.0769043 237.6819305,380.4004517 236.0879517,378.4608459 234.2089996,379.1888123 234.122818,381.9973145 234.7457733,383.5377502 235.1047668,383.3435059 233.8032684,384.0477295 	"/>
        <polyline class="st88" points="232.3032837,384.9438782 231.1539307,383.5666199 229.0153198,382.2516174 227.4757385,383.5516663 228.308609,386.235199 229.3991394,387.4888916 229.6753235,387.1883545 228.6740265,388.2779541 	"/>
        <polyline class="st88" points="227.4757385,389.5821533 225.991272,388.5750427 223.5730591,387.9004822 222.4514465,389.5745239 223.9917297,391.92453 225.3855896,392.829071 225.5682373,392.4640503 224.9060516,393.7874146 	"/>
        <polyline class="st88" points="224.2502289,395.3083496 222.5108337,394.8696899 220.0077362,395.0628967 219.5263214,397.0195923 221.7774811,398.7010803 223.396637,399.0743103 223.2069855,399.0456848 223.2738037,400.1388855 	"/>
        <polyline class="st88" points="222.9764709,401.7633362 221.1919556,401.9460144 218.9058838,402.9836731 219.1227264,404.98703 221.8132324,405.7971497 223.4624023,405.5941162 223.367691,405.1970825 223.7110748,406.6365051 	"/>
        <polyline class="st88" points="223.8535919,408.4425659 222.1771545,409.0809021 220.2375488,410.6748657 220.9655151,412.553833 223.7740173,412.6400146 225.3144379,412.0170593 225.1201935,411.6580811 225.8244324,412.9595642 	"/>
        <polyline class="st88" points="226.8637695,414.2588806 225.4282227,415.3345642 224.0031128,417.4014282 225.2207794,419.006958 227.9442444,418.3156738 229.2532806,417.2922363 228.9676208,417.0007019 230.0033112,418.0576477 	"/>
        <polyline class="st88" points="231.2424774,419.006958 230.3144226,420.5420837 229.7673492,422.9922791 231.4977875,424.0247498 233.7639923,422.3635864 234.5943146,420.9242859 234.2202454,420.7609863 235.5764618,421.3530273 	"/>
        <polyline class="st88" points="237.1531525,422.1844788 236.624054,423.8985291 236.6859894,426.4082947 238.6148071,426.9914551 240.4118042,424.8313904 240.869278,423.2339783 240.4668121,423.1660461 241.9259644,423.412384 	"/>
        <polyline class="st88" points="243.6114655,423.5351868 243.7005157,425.3268127 244.6171112,427.6640625 246.6290588,427.5523682 247.5789032,424.9079285 247.4624329,423.2503967 247.0610046,423.3242188 248.5164185,423.0566101 	"/>
        <polyline class="st88" points="250.2770081,422.8583374 250.7968445,424.5752258 252.2516479,426.6213074 254.1768188,426.0261841 254.4586945,423.2305298 253.9447021,421.6503906 253.5730438,421.8191223 254.9204865,421.2073975 	"/>
        <polyline class="st88" points="256.4682312,420.3545227 257.4931641,421.8267517 259.5090332,423.3231201 261.1560669,422.1622314 260.5602722,419.4162903 259.5831299,418.0723267 259.2817993,418.3476563 260.3742676,417.3494873 	"/>
        <polyline class="st88" points="261.6604919,416.1593323 263.0710754,417.2675781 265.4363403,418.1091614 266.6719971,416.5174561 265.2993774,414.0657043 263.9720154,413.0661621 263.7643738,413.4175415 264.5172424,412.1435852 	"/>
        <polyline class="st88" points="265.2540894,410.6748962 266.9380798,411.2929688 269.4476624,411.3624878 270.1309814,409.4668274 268.0679016,407.5592346 266.4966431,407.0187683 266.4077148,407.4171448 266.730072,405.9728699 	"/>
        <polyline class="st88" points="267.0684204,404.2390137 268.8609924,404.3064575 271.2692261,403.5970764 271.333313,401.5830383 268.7817383,400.4063416 267.1203613,400.3778992 267.158905,400.7842407 267.0191956,399.3110352 	"/>
        <polyline class="st88" points="266.7871399,397.5995178 268.4946899,397.0498047 270.5150757,395.5595093 269.8864441,393.6450195 267.0863037,393.4119873 265.5153809,393.9534912 265.6905823,394.3221436 265.0554199,392.9855652 	"/>
    </g>
</svg>
