<?xml version="1.0" encoding="utf-8"?>

<svg version="1.1" id="Calque_1" xmlns="http://www.w3.org/2000/svg" xmlns:xlink="http://www.w3.org/1999/xlink" x="0px" y="0px" viewBox="0 0 500 500" style="enable-background:new 0 0 500 500;" xml:space="preserve">
	<style type="text/css">
		.st0{fill:#C1E7F1;}
		.st1{fill:#C2E8F7;}
		.st2{fill:#A2DDF5;}
		.st3{fill:#94DAF8;}
		.st4{fill:#8BD2F5;}
		.st5{fill:#88B4E0;}
		.st6{fill:#84D2F5;}
		.st7{fill:#8BC8ED;}
		.st8{fill:#89BDE7;}
		.st9{fill:#85A7D8;}
		.st10{fill:#80BBE6;}
		.st11{fill:#75A4D7;}
		.st12{fill:#7F98CD;}
		.st13{fill:#9FDBE9;}
		.st14{fill:#9FDAE5;}
		.st15{fill:#8AD4E8;}
		.st16{fill:#5CCBF3;}
		.st17{fill:#52CAF5;}
		.st18{fill:#6FCFF2;}
		.st19{fill:#6BC5EF;}
		.st20{fill:#50AEE2;}
		.st21{fill:#4C9ED7;}
		.st22{fill:#61A0D6;}
		.st23{fill:#508FCC;}
		.st24{fill:#4D7ABD;}
		.st25{fill:#5F7FC0;}
		.st26{fill:#507CBF;}
		.st27{fill:#3A75BB;}
		.st28{fill:#305DAB;}
		.st29{fill:#8BCBEF;}
		.st30{fill:#8FD8F8;}
		.st31{fill:#9BDAEF;}
		.st32{fill:#86D5F0;}
		.st33{fill:#6CCFF3;}
		.st34{fill:#53C9F4;}
		.st35{fill:#4DC5F2;}
		.st36{fill:#4AA6DD;}
		.st37{fill:#4A98D3;}
		.st38{fill:#49AFE3;}
		.st39{fill:#448BCA;}
		.st40{fill:#3F76BB;}
		.st41{fill:#3E6CB5;}
		.st42{fill:#3A63AF;}
		.st43{fill:#3660AD;}
		.st44{fill:#346CB5;}
		.st45{fill:#84ADDC;}
		.st46{fill:#7FBEE8;}
		.st47{fill:#6BAADC;}
		.st48{fill:#64BDEA;}
		.st49{fill:#53AFE3;}
		.st50{fill:#4B90CD;}
		.st51{fill:#458DCB;}
		.st52{fill:#4076BB;}
		.st53{fill:#4481C2;}
		.st54{fill:#3D6DB5;}
		.st55{fill:#3D6AB3;}
		.st56{fill:#3A57A6;}
		.st57{fill:#3A58A8;}
		.st58{fill:#364DA1;}
		.st59{fill:#3350A3;}
		.st60{fill:#2A419A;}
		.st61{fill:#7E86C2;}
		.st62{fill:#727CBC;}
		.st63{fill:#617FBF;}
		.st64{fill:#556FB5;}
		.st65{fill:#4A6BB3;}
		.st66{fill:#3B65B0;}
		.st67{fill:#375EAB;}
		.st68{fill:#3B62AE;}
		.st69{fill:#3953A4;}
		.st70{fill:#3954A5;}
		.st71{fill:#364A9F;}
		.st72{fill:#313F99;}
		.st73{fill:#2F3694;}
		.st74{fill:#2F3B97;}
		.st75{fill:#2B3290;}
		.st76{fill:#707DBD;}
		.st77{fill:#5C77BA;}
		.st78{fill:#3466B1;}
		.st79{fill:#225FAC;}
		.st80{fill:#2C59A8;}
		.st81{fill:#2352A4;}
		.st82{fill:#2A4BA0;}
		.st83{fill:#2F499E;}
		.st84{fill:#283C97;}
		.st85{fill:#2B348E;}
		.st86{fill:#2B3086;}
		.st87{fill:none;stroke:#72C9F1;stroke-width:3;stroke-linejoin:round;stroke-miterlimit:10;}
		.st88{enable-background:new    ;}
		.st89{fill:none;stroke:#ED2224;stroke-width:0.2;stroke-linejoin:round;stroke-miterlimit:10;}
	</style>
	<g id="XMLID_404_">
		<g id="cloud_1_">
			<g id="cloud_3_">
				<g id="color_2_">
					<path id="XMLID_509_" class="st0" d="M195.7,204.2c-0.1,0.3-0.2,0.5-0.3,0.8l0.9,0.2L195.7,204.2z"/>
					<path id="XMLID_508_" class="st1" d="M197.8,198.8c-0.8,1.7-1.5,3.5-2.1,5.3l0.7,1L197.8,198.8z"/>
					<path id="XMLID_507_" class="st2" d="M227,203.2l-12.9-25.1c-6.9,5.3-12.5,12.4-16.3,20.7l-1.5,6.3L227,203.2z"/>
					<path id="XMLID_506_" class="st3" d="M235.4,177.3l-10.7-5.3c-3.7,1.6-7.3,3.7-10.5,6.2l12.9,25.1L235.4,177.3z"/>
					<path id="XMLID_505_" class="st4" d="M258.3,171c0,0-0.1,0-0.1,0l-17.7-2.8c-5.6,0.3-10.9,1.6-15.8,3.8l10.7,5.3L258.3,171z"/>
					<path id="XMLID_504_" class="st5" d="M243.3,168c-0.9,0-1.9,0-2.8,0.1l17.7,2.8C253.4,169,248.4,168,243.3,168z"/>
					<polygon id="XMLID_503_" class="st6" points="235.4,177.3 227,203.2 241.7,188.3 				"/>
					<path id="XMLID_502_" class="st7" d="M241.7,188.3l16.6-17.3c0,0,0,0,0,0l-22.9,6.3L241.7,188.3z"/>
					<path id="XMLID_501_" class="st8" d="M266.5,179.7l-8.1-8.7c0,0-0.1,0-0.1,0l-16.6,17.3L266.5,179.7z"/>
					<path id="XMLID_500_" class="st9" d="M270.9,178.7c-3.9-3.3-8.1-5.9-12.5-7.7l8.1,8.7L270.9,178.7z"/>
					<polygon id="XMLID_499_" class="st10" points="266.5,179.7 241.7,188.3 267.9,202.9 				"/>
					<path id="XMLID_498_" class="st11" d="M267.9,202.9l18.2-3.9c-2.2-4.8-4.9-9.1-8-12.9l-11.6-6.4L267.9,202.9z"/>
					<path id="XMLID_497_" class="st12" d="M278.1,186.1c-2.2-2.8-4.6-5.3-7.2-7.4l-4.4,1L278.1,186.1z"/>
					<path id="XMLID_496_" class="st13" d="M193.4,212.8c-0.4,2-0.6,4-0.8,6.1c-1.1-0.1-2.1-0.2-3.1-0.2c-3.7,0-7.3,0.6-10.7,1.6l22.7,0.8L193.4,212.8z"/>
					<path id="XMLID_495_" class="st14" d="M196.4,205.2l-0.9-0.2c-0.8,2.5-1.5,5.1-2,7.8l8.1,8.4L196.4,205.2z"/>
					<polygon id="XMLID_494_" class="st15" points="196.4,205.2 201.6,221.2 227,203.2 				"/>
					<polygon id="XMLID_493_" class="st16" points="227,203.2 201.6,221.2 236,230.6 				"/>
					<polygon id="XMLID_492_" class="st17" points="240.9,215.7 227,203.2 236,230.6 				"/>
					<polygon id="XMLID_491_" class="st18" points="241.7,188.3 227,203.2 240.9,215.7 				"/>
					<polygon id="XMLID_490_" class="st19" points="267.9,202.9 241.7,188.3 240.9,215.7 				"/>
					<polygon id="XMLID_489_" class="st20" points="269.7,237.4 267.9,202.9 240.9,215.7 				"/>
					<polygon id="XMLID_488_" class="st21" points="278.6,216.7 267.9,202.9 269.7,237.4 				"/>
					<path id="XMLID_487_" class="st22" d="M278.6,216.7l10.2-11c-0.8-2.3-1.7-4.5-2.7-6.7l-18.2,3.9L278.6,216.7z"/>
					<path id="XMLID_486_" class="st23" d="M288.5,228.4l6.8-24.9c-1.6,0.5-3.1,1-4.6,1.6c-0.7,0.2-1.3,0.5-1.9,0.7c0,0,0,0,0,0l-10.2,11L288.5,228.4z"/>
					<path id="XMLID_485_" class="st24" d="M324.7,220.2l-20.5-17.5c-1.2-0.1-2.3-0.1-3.5-0.1c-1.6,0-3.5,0.4-5.4,1l-6.8,24.9L324.7,220.2z"/>
					<path id="XMLID_484_" class="st25" d="M323.8,209.4c-5.9-3.8-12.5-6.1-19.6-6.7l20.5,17.5L323.8,209.4z"/>
					<path id="XMLID_483_" class="st26" d="M331.4,215.5c-2.3-2.3-4.9-4.3-7.6-6.1l0.9,10.8L331.4,215.5z"/>
					<path id="XMLID_482_" class="st27" d="M343.6,234.7c-1.5-4.2-3.6-8.2-6-11.8l5.9,27.3L343.6,234.7z"/>
					<path id="XMLID_481_" class="st28" d="M346,263c0.5-3.1,0.8-6.3,0.8-9.6c0-6.6-1.1-12.9-3.2-18.7l-0.1,15.5L346,263z"/>
					<path id="XMLID_480_" class="st29" d="M161.5,232c-6.6,7.7-10.7,18.1-10.7,29.5c0,0.4,0,0.7,0,1.1l14.7-15.6L161.5,232z"/>
					<path id="XMLID_479_" class="st30" d="M174.7,237.5l-10.3-8.6c-1,1-2,2-2.9,3.1l4,15L174.7,237.5z"/>
					<path id="XMLID_478_" class="st31" d="M173.1,222.7c-3.2,1.6-6.1,3.7-8.8,6.2l10.3,8.6L173.1,222.7z"/>
					<path id="XMLID_477_" class="st32" d="M201.6,221.2l-22.7-0.8c-2,0.6-3.9,1.4-5.7,2.3l1.5,14.8L201.6,221.2z"/>
					<polygon id="XMLID_476_" class="st33" points="201.6,221.2 174.7,237.5 200.2,240.1 				"/>
					<polygon id="XMLID_475_" class="st34" points="220.2,241.1 201.6,221.2 200.2,240.1 				"/>
					<polygon id="XMLID_474_" class="st35" points="236,230.6 201.6,221.2 220.2,241.1 				"/>
					<polygon id="XMLID_473_" class="st36" points="220.2,241.1 241.2,253.2 236,230.6 				"/>
					<polygon id="XMLID_472_" class="st37" points="236,230.6 241.2,253.2 269.7,237.4 				"/>
					<polygon id="XMLID_471_" class="st38" points="240.9,215.7 236,230.6 269.7,237.4 				"/>
					<polygon id="XMLID_470_" class="st39" points="288.5,228.4 278.6,216.7 269.7,237.4 				"/>
					<polygon id="XMLID_469_" class="st40" points="300.5,241.1 288.5,228.4 269.7,237.4 				"/>
					<polygon id="XMLID_468_" class="st41" points="324.7,220.2 288.5,228.4 300.5,241.1 				"/>
					<polygon id="XMLID_467_" class="st42" points="315.9,243.3 324.7,220.2 300.5,241.1 				"/>
					<polygon id="XMLID_466_" class="st43" points="343.5,250.2 324.7,220.2 315.9,243.3 				"/>
					<path id="XMLID_465_" class="st44" d="M343.5,250.2l-5.9-27.3c-1.8-2.7-3.9-5.1-6.1-7.4l-6.7,4.7L343.5,250.2z"/>
					<path id="XMLID_464_" class="st45" d="M165.4,247l-14.7,15.6c0,1.5,0.1,3,0.3,4.5l29.2,4.3L165.4,247z"/>
					<polygon id="XMLID_463_" class="st46" points="165.4,247 180.3,271.5 174.7,237.5 				"/>
					<polygon id="XMLID_462_" class="st47" points="180.3,271.5 199.8,264.5 174.7,237.5 				"/>
					<polygon id="XMLID_461_" class="st48" points="174.7,237.5 199.8,264.5 200.2,240.1 				"/>
					<polygon id="XMLID_460_" class="st49" points="200.2,240.1 199.8,264.5 220.2,241.1 				"/>
					<polygon id="XMLID_459_" class="st50" points="199.8,264.5 221.1,278 220.2,241.1 				"/>
					<polygon id="XMLID_458_" class="st51" points="220.2,241.1 221.1,278 241.2,253.2 				"/>
					<polygon id="XMLID_457_" class="st52" points="241.2,253.2 221.1,278 254.1,261.7 				"/>
					<polygon id="XMLID_456_" class="st53" points="241.2,253.2 254.1,261.7 269.7,237.4 				"/>
					<polygon id="XMLID_455_" class="st54" points="269.7,237.4 254.1,261.7 280.6,267.9 				"/>
					<polygon id="XMLID_454_" class="st55" points="300.5,241.1 269.7,237.4 280.6,267.9 				"/>
					<polygon id="XMLID_453_" class="st56" points="280.6,267.9 302.9,263.7 300.5,241.1 				"/>
					<polygon id="XMLID_452_" class="st57" points="300.5,241.1 302.9,263.7 315.9,243.3 				"/>
					<polygon id="XMLID_451_" class="st58" points="302.9,263.7 327.7,265.7 315.9,243.3 				"/>
					<polygon id="XMLID_450_" class="st59" points="327.7,265.7 343.5,250.2 315.9,243.3 				"/>
					<path id="XMLID_449_" class="st60" d="M327.7,265.7l15,8.7c1.5-3.6,2.6-7.5,3.3-11.5l-2.5-12.8L327.7,265.7z"/>
					<path id="XMLID_448_" class="st61" d="M151.1,267.1c1.3,11,6.4,20.7,13.9,27.5l15.3-23.1L151.1,267.1z"/>
					<path id="XMLID_438_" class="st62" d="M180.3,271.5l-15.3,23.1c2.2,1.9,4.5,3.6,7,5.1l12.5-3.5L180.3,271.5z"/>
					<polygon id="XMLID_437_" class="st63" points="184.5,296.1 199.8,264.5 180.3,271.5 				"/>
					<polygon id="XMLID_436_" class="st64" points="184.5,296.1 194.2,304.3 195.9,304.3 199.8,264.5 				"/>
					<polygon id="XMLID_435_" class="st65" points="199.8,264.5 195.9,304.3 197,304.3 221.1,278 				"/>
					<polygon id="XMLID_434_" class="st66" points="221.1,278 197,304.3 207.8,304.3 228.4,302 				"/>
					<polygon id="XMLID_433_" class="st67" points="221.1,278 228.4,302 242.3,294.2 				"/>
					<polygon id="XMLID_432_" class="st68" points="254.1,261.7 221.1,278 242.3,294.2 				"/>
					<polygon id="XMLID_431_" class="st69" points="242.3,294.2 281.1,290.6 254.1,261.7 				"/>
					<polygon id="XMLID_430_" class="st70" points="254.1,261.7 281.1,290.6 280.6,267.9 				"/>
					<polygon id="XMLID_420_" class="st71" points="281.1,290.6 302.9,263.7 280.6,267.9 				"/>
					<polygon id="XMLID_419_" class="st72" points="290.6,301.8 302.9,263.7 281.1,290.6 				"/>
					<path id="XMLID_418_" class="st73" d="M290.6,301.8l29-2c0.7-0.3,1.3-0.7,2-1l-18.7-35L290.6,301.8z"/>
					<path id="XMLID_417_" class="st74" d="M302.9,263.7l18.7,35c0.2-0.1,0.5-0.3,0.7-0.4l5.4-32.6L302.9,263.7z"/>
					<path id="XMLID_416_" class="st75" d="M322.3,298.3c9-5.2,16.2-13.6,20.4-23.8l-15-8.7L322.3,298.3z"/>
					<path id="XMLID_415_" class="st76" d="M171.9,299.6c2.8,1.6,5.8,2.8,8.9,3.6l3.6-7.1L171.9,299.6z"/>
					<path id="XMLID_414_" class="st77" d="M180.8,303.2c2.8,0.7,5.7,1.1,8.7,1.1h4.7l-9.7-8.2L180.8,303.2z"/>
					<polygon id="XMLID_413_" class="st78" points="228.4,302 207.8,304.3 226.8,304.3 				"/>
					<polygon id="XMLID_412_" class="st79" points="226.8,304.3 229.1,304.3 228.4,302 				"/>
					<polygon id="XMLID_411_" class="st80" points="228.4,302 229.1,304.3 240.3,304.3 242.3,294.2 				"/>
					<polygon id="XMLID_410_" class="st81" points="240.3,304.3 244.9,304.3 242.3,294.2 				"/>
					<polygon id="XMLID_409_" class="st82" points="244.9,304.3 257.5,304.3 242.3,294.2 				"/>
					<polygon id="XMLID_408_" class="st83" points="242.3,294.2 257.5,304.3 277.3,304.3 281.1,290.6 				"/>
					<polygon id="XMLID_407_" class="st84" points="281.1,290.6 277.3,304.3 287.6,304.3 290.6,301.8 				"/>
					<polygon id="XMLID_406_" class="st85" points="287.6,304.3 292,304.3 290.6,301.8 				"/>
					<path id="XMLID_405_" class="st86" d="M292,304.3h1.5h7.2h1.6v-0.1c6.2-0.2,12-1.8,17.3-4.4l-29,2L292,304.3z"/>
				</g>
				
			</g>
		</g>
		<g id="XMLID_391_">
			<path id="XMLID_392_" class="st87" d="M248.8,5c-59.5,0-104.5,105.2-104.5,244.7c0,139.5,44.9,244.7,104.5,244.7s104.5-105.2,104.5-244.7C353.2,110.2,308.3,5,248.8,5z"/>
			<path id="XMLID_393_" class="st87" d="M13.6,127.4c-29.8,46.5,48.9,134.1,183,203.8C330.6,401,454.2,418.6,484,372.1c29.8-46.5-48.9-134.1-183-203.9C166.9,98.5,43.3,80.9,13.6,127.4z"/>
			<path id="XMLID_394_" class="st87" d="M13.6,372.1C43.4,418.6,166.9,401,301,331.2c134.1-69.7,212.7-157.4,183-203.8c-29.8-46.5-153.3-28.9-287.4,40.8C62.5,238-16.2,325.6,13.6,372.1z"/>
			<ellipse id="XMLID_395_" class="st44" cx="7.3" cy="141" rx="4.5" ry="4.1"/>
			<ellipse id="XMLID_396_" class="st44" cx="7.3" cy="358.5" rx="4.5" ry="4.1"/>
			<ellipse id="XMLID_397_" class="st44" cx="490.3" cy="141" rx="4.5" ry="4.1"/>
			<ellipse id="XMLID_398_" class="st44" cx="490.3" cy="358.5" rx="4.5" ry="4.1"/>
			<ellipse id="XMLID_399_" class="st44" cx="248.8" cy="494.4" rx="4.5" ry="4.1"/>
			<ellipse id="XMLID_400_" class="st44" cx="248.8" cy="5" rx="4.5" ry="4.1"/>
		</g>
	</g>
</svg>
