<svg version="1.1" xmlns="http://www.w3.org/2000/svg" xmlns:xlink="http://www.w3.org/1999/xlink" x="0px" y="0px" width="48px" height="48px" viewBox="0 0 48 48" enable-background="new 0 0 48 48" xml:space="preserve">
	<path fill="#e2e2e2" d="M10.564,11.565C14.003,8.127,18.753,6,24,6v19.002L10.564,11.565z"></path>
	<path fill="#FFFFFF" d="M9,25c0,8.283,6.715,15,15,15c8.285,0,15-6.717,15-15s-6.715-15-15-15C15.715,10,9,16.717,9,25"></path>
	<g>
		<polygon points="18,16 19.765,15.059 24.882,24.529 23.118,25.471 	"></polygon>
		<rect x="20.245" y="23.929" transform="matrix(0.7072 0.707 -0.707 0.7072 25.7735 -7.062)" width="2.337" height="7.317"></rect>
		<path d="M22,25c0,1.105,0.895,2,2,2c1.105,0,2-0.895,2-2s-0.895-2-2-2C22.895,23,22,23.895,22,25"></path>
	</g>
	<path fill="#0d6a86" d="M23,25c0,0.552,0.448,1,1,1s1-0.448,1-1s-0.448-1-1-1S23,24.448,23,25"></path>
	<g>
		<polygon fill="#0d6a86" points="26,3 26,13 20,8 	"></polygon>
		<path fill="#0d6a86" d="M13.398,14.399C10.682,17.115,9,20.865,9,25.002c0,8.271,6.729,15,15,15c8.271,0,15-6.729,15-15c0-8.272-6.729-15-15-15v-4c10.477,0,19,8.522,19,19c0,10.476-8.523,19-19,19s-19-8.524-19-19c0-5.239,2.131-9.989,5.571-13.43L13.398,14.399z"></path>
	</g>
</svg>