<svg version="1.1" id="Layer_1" xmlns="http://www.w3.org/2000/svg" xmlns:xlink="http://www.w3.org/1999/xlink" x="0px" y="0px" viewBox="0 0 48 48" enable-background="new 0 0 48 48" xml:space="preserve">
    <path fill="#009688" d="M34,21c1.7,0,3,1.3,3,3s-1.3,3-3,3s-3-1.3-3-3S32.3,21,34,21z M11,24c0,1.7,1.3,3,3,3s3-1.3,3-3s-1.3-3-3-3S11,22.3,11,24z"></path>
    <path fill="#4527A0" d="M24,19c-9.6,0-22-2-22-2v4c0,0,5.2,13,11.2,13h1.2c2.8,0,5.4-1.3,7-3.6l0,0c1.3-1.8,4-1.8,5.3,0l0,0c1.6,2.2,4.2,3.6,7,3.6h1.2c6,0,11.2-13,11.2-13v-4C46,17,33.6,19,24,19z M19,24c0,3.6-1.9,5-5,5h-0.6c-2.5,0-4.3-1.4-5.1-3.7C7.8,23.7,9,22,10.7,22L19,24z M39.7,25.3c-0.8,2.3-2.6,3.7-5.1,3.7H34c-3.1,0-5-1.4-5-5l8.3-2C39,22,40.2,23.7,39.7,25.3z"></path>
    <rect x="22.3" y="-3.8" transform="matrix(0.7071 -0.7071 0.7071 0.7071 -9.8172 24.2055)" fill="#37474F" width="4" height="55.5"></rect>
    <path fill="#263238" d="M34,23c0.6,0,1,0.4,1,1s-0.4,1-1,1s-1-0.4-1-1S33.4,23,34,23z M13,24c0,0.6,0.4,1,1,1s1-0.4,1-1s-0.4-1-1-1S13,23.4,13,24z"></path>
</svg>