<svg version="1.1" xmlns="http://www.w3.org/2000/svg" xmlns:xlink="http://www.w3.org/1999/xlink" x="0px" y="0px" viewBox="0 0 48 48" enable-background="new 0 0 48 48" xml:space="preserve">
<path fill="#FFAB00" d="M43,24c0,10.493-8.507,19-19,19S5,34.493,5,24S13.507,5,24,5S43,13.507,43,24"></path>
<path fill="#FFCC80" d="M24,9C15.716,9,9,15.716,9,24s6.716,15,15,15s15-6.716,15-15S32.284,9,24,9z M36.816,21.812l-1.973,0.332c-0.1-0.593-0.251-1.184-0.45-1.757l1.889-0.656C36.518,20.408,36.697,21.108,36.816,21.812z M35.411,17.768l-1.754,0.961c-0.29-0.53-0.627-1.04-1-1.516l1.572-1.234C34.671,16.539,35.068,17.142,35.411,17.768z M25.033,11.041l-0.16,1.994c-0.602-0.049-1.217-0.044-1.818,0.004l-0.166-1.991C23.596,10.987,24.327,10.984,25.033,11.041z M20.771,11.404l0.494,1.938c-0.584,0.149-1.16,0.349-1.713,0.594l-0.811-1.828C19.396,11.817,20.079,11.582,20.771,11.404z M16.86,13.136l1.099,1.67c-0.504,0.332-0.984,0.709-1.429,1.121l-1.359-1.47C15.697,13.972,16.266,13.526,16.86,13.136z M13.72,16.039l1.584,1.224c-0.374,0.483-0.708,0.996-0.993,1.525l-1.76-0.951C12.888,17.214,13.281,16.609,13.72,16.039z M11.692,19.808l1.892,0.645c-0.194,0.573-0.342,1.165-0.438,1.759l-1.975-0.32C11.286,21.187,11.461,20.486,11.692,19.808z M11,24.027l2-0.006c0.002,0.608,0.053,1.219,0.152,1.813l-1.973,0.33C11.063,25.463,11.002,24.744,11,24.027z M12.575,30.207c-0.344-0.629-0.635-1.291-0.868-1.963l1.892-0.652c0.196,0.568,0.442,1.127,0.731,1.658L12.575,30.207z M15.209,33.576C14.68,33.09,14.19,32.56,13.754,32l1.576-1.23c0.369,0.473,0.784,0.922,1.232,1.334L15.209,33.576z M18.791,35.914c-0.656-0.287-1.293-0.631-1.89-1.021l1.097-1.674c0.502,0.33,1.04,0.62,1.595,0.863L18.791,35.914z M22.943,36.957c-0.715-0.057-1.428-0.174-2.118-0.348l0.488-1.939c0.583,0.146,1.185,0.244,1.79,0.294L22.943,36.957z M23,31V20.711l-3,0.947v-2.5L25.723,17H26v14H23z M25.084,36.957l-0.166-1.993c0.604-0.051,1.207-0.151,1.793-0.3l0.49,1.939C26.51,36.778,25.797,36.897,25.084,36.957z M26.666,13.325l0.482-1.941c0.693,0.173,1.378,0.405,2.035,0.69l-0.799,1.834C27.83,13.666,27.252,13.471,26.666,13.325z M29.233,35.903l-0.809-1.83c0.556-0.245,1.093-0.536,1.597-0.866l1.096,1.672C30.522,35.27,29.889,35.614,29.233,35.903z M29.984,14.769l1.09-1.676c0.599,0.389,1.169,0.83,1.696,1.312l-1.35,1.477C30.975,15.473,30.491,15.099,29.984,14.769z M32.809,33.562l-1.355-1.471c0.447-0.412,0.86-0.861,1.23-1.337l1.578,1.229C33.825,32.544,33.336,33.075,32.809,33.562z M35.437,30.186l-1.758-0.953c0.289-0.534,0.535-1.093,0.729-1.662l1.893,0.648C36.069,28.893,35.779,29.555,35.437,30.186z M34.852,25.811C34.95,25.215,35,24.605,35,24l1.702-0.043l0.296,0.004c0.002,0.754-0.057,1.473-0.174,2.176L34.852,25.811z"></path>
</svg>