<svg version="1.1" xmlns="http://www.w3.org/2000/svg" xmlns:xlink="http://www.w3.org/1999/xlink" x="0px" y="0px" viewBox="0 0 48 48" enable-background="new 0 0 48 48" xml:space="preserve">
    <path fill="#FF3D00" d="M42,37c0,2.762-2.238,5-5,5H11c-2.761,0-5-2.238-5-5V11c0-2.762,2.239-5,5-5h26c2.762,0,5,2.238,5,5V37z"></path>
    <g>
        <path fill="#FFFFFF" d="M23.058,25.942l-1.009-0.773c-0.309-0.243-0.736-0.576-0.736-1.182c0-0.604,0.427-0.993,0.79-1.353c1.18-0.904,2.36-1.918,2.36-3.953c0-2.096-1.354-3.157-1.998-3.769h1.738L26,14h-5.781c-1.513,0-3.425,0.229-5.019,1.528c-1.211,1.012-1.803,2.423-1.803,3.688c0,2.147,1.689,4.329,4.663,4.329c0.281,0,0.589-0.029,0.901-0.056c-0.142,0.334-0.284,0.611-0.284,1.071c0,0.856,0.45,1.379,0.844,1.871c-1.265,0.086-3.622,0.225-5.357,1.271C12.505,28.67,12,30.075,12,31.063C12,33.102,13.961,35,18.03,35c4.826,0,7.38-2.615,7.38-5.204C25.41,27.901,24.292,26.962,23.058,25.942z M19.379,22.774c-2.41,0-3.512-3.059-3.512-4.903c0-0.715,0.145-1.458,0.621-2.03c0.454-0.557,1.238-0.914,1.967-0.914c2.327,0,3.534,3.083,3.534,5.068c0,0.491-0.057,1.369-0.697,2.005C20.838,22.44,20.085,22.774,19.379,22.774z M19.407,33.847c-3.001,0-4.935-1.406-4.935-3.36c0-1.956,1.791-2.615,2.411-2.837c1.18-0.389,2.693-0.439,2.946-0.439c0.283,0,0.424,0,0.649,0.027c2.13,1.486,3.053,2.228,3.053,3.634C23.53,32.576,22.102,33.847,19.407,33.847z"></path>
        <rect x="31" y="20" fill="#FFFFFF" width="2" height="8"></rect>
        <rect x="28" y="23" fill="#FFFFFF" width="8" height="2"></rect>
    </g>
</svg>