<svg version="1.1" xmlns="http://www.w3.org/2000/svg" xmlns:xlink="http://www.w3.org/1999/xlink" x="0px" y="0px" viewBox="0 0 48 48" enable-background="new 0 0 48 48" xml:space="preserve">
    <path fill="#4DB6AC" d="M39.989,12c0,0,0.999,23-15.816,32C7.012,35,8.011,12,8.011,12C16.006,12,24,4,24,4S30.995,12,39.989,12z"></path>
    <g>
        <path fill="#00695C" d="M25.498,25.252c0-0.405-0.104-0.712-0.311-0.92c-0.208-0.207-0.585-0.422-1.132-0.646c-0.998-0.378-1.716-0.821-2.153-1.329c-0.438-0.509-0.656-1.109-0.656-1.802c0-0.839,0.297-1.512,0.893-2.021c0.594-0.508,1.35-0.762,2.266-0.762c0.611,0,1.155,0.129,1.634,0.387s0.847,0.62,1.104,1.09c0.257,0.47,0.386,1.003,0.386,1.6h-2.003c0-0.465-0.1-0.819-0.297-1.063c-0.199-0.244-0.484-0.366-0.858-0.366c-0.351,0-0.624,0.104-0.82,0.312c-0.196,0.207-0.294,0.486-0.294,0.837c0,0.273,0.109,0.521,0.328,0.741c0.219,0.222,0.605,0.45,1.162,0.688c0.971,0.351,1.676,0.781,2.115,1.292c0.44,0.511,0.66,1.16,0.66,1.948c0,0.866-0.275,1.543-0.827,2.03S25.393,28,24.445,28c-0.643,0-1.229-0.132-1.757-0.396s-0.942-0.643-1.241-1.135C21.149,25.977,21,25.396,21,24.726h2.017c0,0.574,0.112,0.991,0.335,1.251s0.588,0.39,1.094,0.39C25.146,26.366,25.498,25.995,25.498,25.252z"></path>
        <path fill="#00695C" d="M31.01,26.332h3.527V28H29v-9.953h2.01V26.332z"></path>
        <path fill="#00695C" d="M17.498,25.252c0-0.405-0.104-0.712-0.311-0.92c-0.208-0.207-0.585-0.422-1.132-0.646c-0.998-0.378-1.716-0.821-2.153-1.329c-0.438-0.509-0.656-1.109-0.656-1.802c0-0.839,0.297-1.512,0.893-2.021c0.594-0.508,1.35-0.762,2.266-0.762c0.611,0,1.155,0.129,1.634,0.387s0.847,0.62,1.104,1.09c0.257,0.47,0.386,1.003,0.386,1.6h-2.003c0-0.465-0.1-0.819-0.297-1.063c-0.199-0.244-0.484-0.366-0.858-0.366c-0.351,0-0.624,0.104-0.82,0.312c-0.196,0.207-0.294,0.486-0.294,0.837c0,0.273,0.109,0.521,0.328,0.741c0.219,0.222,0.605,0.45,1.162,0.688c0.971,0.351,1.676,0.781,2.115,1.292c0.44,0.511,0.66,1.16,0.66,1.948c0,0.866-0.275,1.543-0.827,2.03S17.393,28,16.445,28c-0.643,0-1.229-0.132-1.757-0.396s-0.942-0.643-1.241-1.135C13.149,25.977,13,25.396,13,24.726h2.017c0,0.574,0.112,0.991,0.335,1.251s0.588,0.39,1.094,0.39C17.146,26.366,17.498,25.995,17.498,25.252z"></path>
    </g>
</svg>