<svg version="1.1" xmlns="http://www.w3.org/2000/svg" xmlns:xlink="http://www.w3.org/1999/xlink" viewBox="0 0 80 80" style="enable-background:new 0 0 80 80;" xml:space="preserve">
    <g>
        <g>
            <path style="fill:#48c451;" d="M40,77.5C19.322,77.5,2.5,60.678,2.5,40S19.322,2.5,40,2.5S77.5,19.322,77.5,40S60.678,77.5,40,77.5z M40,9.5C23.183,9.5,9.5,23.183,9.5,40S23.183,70.5,40,70.5S70.5,56.817,70.5,40S56.817,9.5,40,9.5z"></path>
        </g>
    </g>
    <path style="fill:#FFFFFF;" d="M3.374,30c0.974-3.573,2.451-6.929,4.359-10h9.951C23.177,13.876,31.126,10,40,10c16.569,0,30,13.431,30,30c0,16.568-13.431,30-30,30S10,56.568,10,40c0-3.512,0.635-6.868,1.744-10H3.374z"></path>
    <polyline style="fill:none;stroke:#66798F;stroke-width:2;stroke-linecap:round;stroke-miterlimit:10;" points="53.989,19.33 40,40 51.692,51.692 "></polyline>
    <g>
        <circle style="fill:#C5D4DE;" cx="40" cy="13" r="1"></circle>
    </g>
    <g>
        <circle style="fill:#C5D4DE;" cx="40" cy="67" r="1"></circle>
    </g>
    <g>
        <circle style="fill:#C5D4DE;" cx="13" cy="40" r="1"></circle>
    </g>
    <g>
        <circle style="fill:#C5D4DE;" cx="67" cy="40" r="1"></circle>
    </g>
    <g>
        <polygon style="fill:#48c451;" points="7.5,25.5 7.5,8.207 24.793,25.5 	"></polygon>
    </g>
    <path style="fill:none;stroke:#48c451;stroke-width:6;stroke-miterlimit:10;" d="M19.009,13.252c-1.927,1.514-3.686,3.232-5.245,5.121"></path>
</svg>