<svg version="1.1" xmlns="http://www.w3.org/2000/svg" xmlns:xlink="http://www.w3.org/1999/xlink" viewBox="0 0 80 80" style="enable-background:new 0 0 80 80;" xml:space="preserve">
    <g>
        <g>
            <path style="fill:#7fabff;" d="M42,75.5C22.425,75.5,6.5,59.575,6.5,40S22.425,4.5,42,4.5S77.5,20.425,77.5,40S61.575,75.5,42,75.5z M42,15.5c-13.509,0-24.5,10.991-24.5,24.5S28.491,64.5,42,64.5S66.5,53.509,66.5,40S55.509,15.5,42,15.5z"></path>
        </g>
    </g>
    <g>
        <path style="fill:#3d7fff;" d="M58,27.5c-6.341,0-11.5-5.159-11.5-11.5S51.659,4.5,58,4.5S69.5,9.659,69.5,16S64.341,27.5,58,27.5z"></path>
    </g>
    <g>
        <path style="fill:#3d7fff;" d="M60,75.5c-6.341,0-11.5-5.159-11.5-11.5S53.659,52.5,60,52.5S71.5,57.659,71.5,64S66.341,75.5,60,75.5z"></path>
    </g>
    <g>
        <path style="fill:#3d7fff;" d="M14,51.5C7.659,51.5,2.5,46.341,2.5,40S7.659,28.5,14,28.5S25.5,33.659,25.5,40S20.341,51.5,14,51.5z"></path>
    </g>
</svg>