<svg xmlns="http://www.w3.org/2000/svg" viewBox="0 0 26 26">
    <path fill="#0f7a9a" stroke="#1e3e45" stroke-width=".1" d="M 13 0 C 11.197725 0 9.6882259 2.2325389 8.8125 5.75 C 5.3291613 4.750336 2.6509778 4.9389374 1.75 6.5 C 0.85226138 8.0548203 2.0058662 10.493007 4.59375 13 C 2.0061162 15.506993 0.85226138 17.94518 1.75 19.5 C 2.6516101 21.061063 5.3296226 21.249917 8.8125 20.25 C 9.6882259 23.767461 11.197725 26 13 26 C 14.802275 26 16.311774 23.767461 17.1875 20.25 C 20.670586 21.24975 23.349022 21.06043 24.25 19.5 C 25.147739 17.94455 23.993884 15.507079 21.40625 13 C 23.994264 10.493257 25.147109 8.0548203 24.25 6.5 C 23.34839 4.9395697 20.670883 4.7505445 17.1875 5.75 C 16.311774 2.2325389 14.802275 0 13 0 z M 13 1.90625 C 14.162082 1.90625 15.40433 3.4930321 16.25 6.03125 C 15.217667 6.3763875 14.123093 6.808552 13 7.34375 C 11.877005 6.8085138 10.782307 6.3764475 9.75 6.03125 C 10.59567 3.4930321 11.837918 1.90625 13 1.90625 z M 6.09375 6.4375 C 6.8153057 6.4287301 7.6862719 6.5334841 8.59375 6.71875 C 8.3787418 7.781411 8.1906258 8.953429 8.09375 10.1875 C 7.0741388 10.889394 6.1552204 11.594335 5.34375 12.3125 C 3.5795252 10.317811 2.8263132 8.4409283 3.40625 7.4375 C 3.785375 6.780875 4.73475 6.4540176 6.09375 6.4375 z M 19.1875 6.4375 C 20.9163 6.3250796 22.152313 6.6714375 22.59375 7.4375 C 23.173687 8.4415013 22.420567 10.317518 20.65625 12.3125 C 19.84478 11.594317 18.925861 10.889397 17.90625 10.1875 C 17.809374 8.953429 17.621258 7.781411 17.40625 6.71875 C 18.028995 6.591595 18.6477 6.4726021 19.1875 6.4375 z M 9.46875 6.90625 C 10.301469 7.1239524 11.179299 7.437853 12.09375 7.8125 C 11.56673 8.0829799 11.036408 8.3466875 10.5 8.65625 C 9.9634816 8.9660564 9.4667066 9.3037491 8.96875 9.625 C 9.1001149 8.656482 9.2442494 7.728877 9.46875 6.90625 z M 16.53125 6.90625 C 16.755751 7.728877 16.899885 8.656482 17.03125 9.625 C 16.533293 9.3037485 16.036518 8.9660564 15.5 8.65625 C 14.963676 8.3466875 14.433212 8.0829921 13.90625 7.8125 C 14.820909 7.4377385 15.698345 7.1240231 16.53125 6.90625 z M 13 8.1875 C 13.70142 8.5094963 14.437059 8.8661359 15.15625 9.28125 C 15.879756 9.6988548 16.554618 10.144567 17.1875 10.59375 C 17.258982 11.360738 17.28125 12.171339 17.28125 13 C 17.28125 13.828661 17.258982 14.639262 17.1875 15.40625 C 16.55469 15.855502 15.879625 16.301014 15.15625 16.71875 C 14.436928 17.133995 13.701519 17.490407 13 17.8125 C 12.298578 17.490306 11.562941 17.134126 10.84375 16.71875 C 10.120244 16.301145 9.4453794 15.855401 8.8125 15.40625 C 8.741018 14.639262 8.71875 13.828661 8.71875 13 C 8.71875 12.171339 8.741018 11.360738 8.8125 10.59375 C 9.4453516 10.1445 10.120244 9.6989864 10.84375 9.28125 C 11.563072 8.8660051 12.298426 8.5095951 13 8.1875 z M 13 10 C 11.343146 10 10 11.343146 10 13 C 10 14.656854 11.343146 16 13 16 C 14.656854 16 16 14.656854 16 13 C 16 11.343146 14.656854 10 13 10 z M 8.0625 11.1875 C 8.0334618 11.777756 8 12.382242 8 13 C 8 13.617758 8.0334618 14.222244 8.0625 14.8125 C 7.2829855 14.210547 6.5729607 13.609915 5.96875 13 C 6.5729033 12.390015 7.2830321 11.789567 8.0625 11.1875 z M 17.9375 11.1875 C 18.717021 11.789512 19.427017 12.389983 20.03125 13 C 19.42703 13.610008 18.716953 14.210427 17.9375 14.8125 C 17.966538 14.222244 18 13.617758 18 13 C 18 12.382242 17.966538 11.777756 17.9375 11.1875 z M 5.34375 13.6875 C 6.1553054 14.405665 7.0740035 15.110606 8.09375 15.8125 C 8.1906258 17.046571 8.3787418 18.218589 8.59375 19.28125 C 5.9769107 19.815536 3.9866699 19.537082 3.40625 18.53125 C 2.8268862 17.527822 3.5797012 15.682377 5.34375 13.6875 z M 20.65625 13.6875 C 22.420579 15.682574 23.173114 17.558499 22.59375 18.5625 C 22.012756 19.567757 20.023004 19.81583 17.40625 19.28125 C 17.621258 18.218589 17.809374 17.046571 17.90625 15.8125 C 18.925906 15.110742 19.844685 14.40558 20.65625 13.6875 z M 8.96875 16.375 C 9.4667768 16.696251 9.963398 17.033944 10.5 17.34375 C 11.036241 17.653312 11.566858 17.917007 12.09375 18.1875 C 11.179185 18.562255 10.30154 18.876 9.46875 19.09375 C 9.2442494 18.271123 9.1001149 17.343518 8.96875 16.375 z M 17.03125 16.375 C 16.899885 17.343518 16.755751 18.271123 16.53125 19.09375 C 15.698508 18.875906 14.820707 18.562376 13.90625 18.1875 C 14.43313 17.916938 14.963759 17.653396 15.5 17.34375 C 16.036518 17.034027 16.53328 16.696181 17.03125 16.375 z M 13 18.65625 C 14.122859 19.191489 15.217778 19.623535 16.25 19.96875 C 15.40433 22.506968 14.162082 24.09375 13 24.09375 C 11.837918 24.09375 10.59567 22.506968 9.75 19.96875 C 10.782162 19.623467 11.87718 19.191622 13 18.65625 z"></path>
</svg>