<svg xmlns="http://www.w3.org/2000/svg" viewBox="0 0 26 26" enable-background="new 0 0 26 26">
    <path fill="#28535c" d="M 13 0 C 9.7 0 7 2.1 7 6 C 7 8.6079093 8.213294 11.311466 10 12.8125 L 10 14.1875 C 10 14.7875 9.59375 15.30625 9.09375 15.40625 C 5.19375 16.60625 2 19.1875 2 20.6875 L 2 22.5 C 2 24.4 6.9 26 13 26 C 19.1 26 24 24.4 24 22.5 L 24 20.6875 C 24 19.2875 20.90625 16.60625 16.90625 15.40625 C 16.40625 15.30625 16 14.6875 16 14.1875 L 16 12.8125 C 17.786706 11.311466 19 8.6079093 19 6 C 19 2.1 16.3 0 13 0 z"></path>
</svg>