<svg version="1.1" id="Layer_1" xmlns="http://www.w3.org/2000/svg" xmlns:xlink="http://www.w3.org/1999/xlink" x="0px" y="0px" viewBox="0 0 80 80" style="enable-background:new 0 0 80 80;" xml:space="preserve">
    <g>
        <g>
            <path style="fill:#FFFFFF;" d="M34.961,77.5l-2.274-9.096l-0.284-0.076c-4.999-1.338-9.552-3.958-13.168-7.577l-0.208-0.208l-8.984,2.57l-5.038-8.727l6.74-6.517l-0.076-0.284c-0.681-2.549-1.026-5.101-1.026-7.586s0.345-5.037,1.026-7.586l0.076-0.284l-6.74-6.517l5.038-8.727l8.984,2.57l0.208-0.208c3.616-3.619,8.169-6.239,13.168-7.577l0.284-0.076L34.961,2.5h10.076l2.274,9.096l0.284,0.076c4.999,1.338,9.553,3.958,13.169,7.577l0.208,0.208l8.983-2.57l5.038,8.727l-6.74,6.517l0.076,0.284c0.681,2.548,1.026,5.1,1.026,7.586c0,2.485-0.345,5.038-1.026,7.586l-0.076,0.284l6.74,6.516l-5.038,8.727l-8.984-2.57l-0.208,0.208c-3.617,3.619-8.17,6.239-13.169,7.577l-0.284,0.076L45.038,77.5H34.961z M40,24.571c-8.507,0-15.429,6.921-15.429,15.429S31.493,55.429,40,55.429S55.428,48.507,55.428,40S48.507,24.571,40,24.571z"></path>
        </g>
        <g>
            <path style="fill:#758da1;" d="M44.648,3l2.108,8.431l0.143,0.571l0.569,0.152c4.914,1.315,9.39,3.89,12.944,7.447l0.416,0.417l0.566-0.162l8.325-2.382l4.648,8.051l-6.248,6.041l-0.423,0.409l0.152,0.568c0.67,2.506,1.009,5.015,1.009,7.457c0,2.442-0.34,4.951-1.009,7.456l-0.152,0.568l0.423,0.409l6.248,6.041l-4.648,8.051l-8.325-2.381l-0.566-0.162l-0.416,0.417c-3.554,3.557-8.03,6.132-12.944,7.447l-0.569,0.152l-0.143,0.571L44.648,77h-9.296l-2.108-8.431l-0.143-0.571l-0.569-0.152c-4.914-1.315-9.39-3.89-12.944-7.447l-0.416-0.417l-0.566,0.162l-8.325,2.381l-4.648-8.05l6.248-6.041l0.423-0.409l-0.152-0.568c-0.67-2.506-1.009-5.015-1.009-7.457s0.34-4.95,1.009-7.457l0.152-0.568l-0.423-0.409l-6.248-6.041l4.648-8.05l8.325,2.381l0.566,0.162l0.416-0.417c3.554-3.557,8.03-6.132,12.944-7.447l0.569-0.152l0.143-0.571L35.352,3H44.648 M40,55.929c8.783,0,15.929-7.146,15.929-15.929S48.783,24.071,40,24.071c-8.783,0-15.929,7.146-15.929,15.929S31.217,55.929,40,55.929 M45.428,2H34.571l-2.297,9.189c-5.138,1.375-9.743,4.054-13.393,7.706l-9.076-2.596l-5.429,9.403l6.809,6.584c-0.659,2.465-1.043,5.042-1.043,7.715s0.385,5.25,1.043,7.715l-6.809,6.584l5.429,9.403l9.076-2.596c3.65,3.652,8.255,6.331,13.393,7.706L34.571,78h10.857l2.297-9.189c5.138-1.375,9.743-4.054,13.393-7.706l9.076,2.596l5.429-9.403l-6.809-6.584c0.659-2.465,1.043-5.042,1.043-7.715s-0.384-5.25-1.043-7.715l6.809-6.584l-5.429-9.403l-9.076,2.596c-3.65-3.652-8.255-6.331-13.393-7.706L45.428,2L45.428,2z M40,54.929c-8.245,0-14.929-6.684-14.929-14.929c0-8.245,6.684-14.929,14.929-14.929S54.928,31.755,54.928,40C54.928,48.245,48.245,54.929,40,54.929L40,54.929z"></path>
        </g>
    </g>
    <g>
        <g>
            <path style="fill:#FFFFFF;" d="M40,19c11.579,0,21,9.421,21,21s-9.421,21-21,21c-11.579,0-21-9.421-21-21S28.42,19,40,19 M40,49c4.963,0,9-4.037,9-9s-4.037-9-9-9c-4.963,0-9,4.037-9,9S35.037,49,40,49 M40,18c-12.15,0-22,9.85-22,22c0,12.15,9.85,22,22,22s22-9.85,22-22C62,27.85,52.15,18,40,18L40,18z M40,48c-4.418,0-8-3.582-8-8c0-4.418,3.582-8,8-8s8,3.582,8,8C48,44.418,44.418,48,40,48L40,48z"></path>
        </g>
    </g>
</svg>